<svg xmlns="http://www.w3.org/2000/svg" xmlns:xlink="http://www.w3.org/1999/xlink" width="732.264" height="575.841" viewBox="0 0 732.264 575.841">
  <defs>
    <linearGradient id="linear-gradient" x1="0.5" y1="1" x2="0.5" gradientUnits="objectBoundingBox">
      <stop offset="0" stop-color="gray" stop-opacity="0.251"/>
      <stop offset="0.54" stop-color="gray" stop-opacity="0.122"/>
      <stop offset="1" stop-color="gray" stop-opacity="0.102"/>
    </linearGradient>
    <linearGradient id="linear-gradient-2" x1="0.5" x2="0.5" y2="0" xlink:href="#linear-gradient"/>
    <linearGradient id="linear-gradient-3" x1="0.5" x2="0.5" y2="0" xlink:href="#linear-gradient"/>
    <linearGradient id="linear-gradient-4" x1="1.096" x2="1.096" y2="0" xlink:href="#linear-gradient"/>
  </defs>
  <g id="Group_10" data-name="Group 10" transform="translate(0)">
    <path id="Path_1" data-name="Path 1" d="M43.44,426.65c11.586,45.151,36.115,84.182,74.881,103.1,80.6,39.32,262.251,19.039,397.846-4.235,70.157-12.043,131.779-45.248,176.57-92.04Z" transform="translate(-35.528 -136.074)" fill="#6363ff" opacity="0.1"/>
    <path id="Path_2" data-name="Path 2" d="M764.884,69.264h-74.4c-3.54,0-6.436-2.639-6.436-5.864s2.89-5.864,6.436-5.864h12.873c-3.54,0-6.436-2.639-6.436-5.864s2.89-5.857,6.436-5.857h-9.185c-3.54,0-6.436-2.639-6.436-5.864s2.89-5.864,6.436-5.864H733a110.015,110.015,0,0,0-30.29-7.608c-105.885-12.4-143.693-4.2-157.048,4.235a155.831,155.831,0,0,1-54.42,21.749C425.917,64.752,303.742,79.536,193,47.728,137.966,31.926,97.063,58.67,72.54,103.28H777.8c-.92-12.976-3.675-24.96-8.734-35.445A6.746,6.746,0,0,1,764.884,69.264Z" transform="translate(-45.898 -20.144)" fill="#ff63c6" opacity="0.1"/>
    <path id="Path_3" data-name="Path 3" d="M32.745,280.23a272.865,272.865,0,0,0,2.89,78.775l653.217,21.781a278.8,278.8,0,0,0,45.383-63.077Zm258.338,56.2H278.21c3.534,0,6.436,2.639,6.436,5.864s-2.9,5.857-6.436,5.857H203.844c-3.534,0-6.436-2.632-6.436-5.857s2.9-5.864,6.436-5.864h12.873c-3.534,0-6.436-2.639-6.436-5.864s2.9-5.864,6.436-5.864h-9.2c-3.534,0-6.436-2.632-6.436-5.857s2.9-5.864,6.436-5.864h74.4c3.54,0,6.436,2.639,6.436,5.864s-2.89,5.857-6.436,5.857h9.165c3.54,0,6.436,2.639,6.436,5.864A6.176,6.176,0,0,1,291.083,336.426Z" transform="translate(-31.147 -95.381)" fill="#ff6363" opacity="0.1"/>
    <path id="Path_4" data-name="Path 4" d="M764.021,149.94,50.869,165.754C42.179,186.087,36.432,209.071,33.78,232.9H751.522a256.8,256.8,0,0,0,10.363-42.8A185.376,185.376,0,0,0,764.021,149.94ZM178.58,201.759H165.707c3.534,0,6.436,2.639,6.436,5.864s-2.9,5.864-6.436,5.864H91.315c-3.534,0-6.436-2.639-6.436-5.864s2.9-5.864,6.436-5.864h12.873c-3.534,0-6.436-2.632-6.436-5.857s2.9-5.864,6.436-5.864h-9.2c-3.534,0-6.436-2.639-6.436-5.864s2.9-5.864,6.436-5.864h74.4c3.54,0,6.436,2.639,6.436,5.864s-2.89,5.864-6.436,5.864h9.191c3.534,0,6.436,2.639,6.436,5.864S182.113,201.759,178.58,201.759Z" transform="translate(-32.085 -58.033)" fill="#a6ff63" opacity="0.1"/>
    <ellipse id="Ellipse_22" data-name="Ellipse 22" cx="48.421" cy="10.871" rx="48.421" ry="10.871" transform="translate(379.183 516.677)" fill="#6c63ff" opacity="0.1"/>
    <ellipse id="Ellipse_23" data-name="Ellipse 23" cx="87.355" cy="7.17" rx="87.355" ry="7.17" transform="translate(452.763 554.903)" fill="#6c63ff" opacity="0.1"/>
    <ellipse id="Ellipse_24" data-name="Ellipse 24" cx="87.355" cy="10.871" rx="87.355" ry="10.871" transform="translate(102.025 540.331)" fill="#6c63ff" opacity="0.1"/>
    <ellipse id="Ellipse_25" data-name="Ellipse 25" cx="65.728" cy="10.871" rx="65.728" ry="10.871" transform="translate(256.84 485.912)" fill="#6c63ff" opacity="0.1"/>
    <path id="Path_5" data-name="Path 5" d="M538.393,269.661C537,259.2,528.5,234.785,528.5,234.785h0q-.222-1.079-.5-2.159c-6.031-23.169-14.379-25.184-14.379-25.184l-29.9-7.2a2.441,2.441,0,0,1,.644.669,3.738,3.738,0,0,0-.47.079,13.837,13.837,0,0,1-2.62-6.332c-.058-.345-.109-.72-.148-1.072a25.072,25.072,0,0,0,6.322-18.11,24.476,24.476,0,0,0-8.034-17.241c-.315-.273-.644-.54-.959-.791,1.41-1.676,1.455-4.008.4-6.339-2.356-5.468-7.479-8.929-12.744-10.62a19.431,19.431,0,0,0-12.371-.3,42.665,42.665,0,0,0-6.475,3.36c-3.971,2.216-8.367,3.972-11.335,7.62a3.947,3.947,0,0,0-1.133,3.058,8.557,8.557,0,0,0,1.126,2.223,7.432,7.432,0,0,1,.058,5.569c-.586,1.813-1.442,3.5-1.847,5.353s-.251,4.044,1,5.375a21.262,21.262,0,0,0,1.867,1.439,10.648,10.648,0,0,1,1.783,2.238q1.776,2.662,3.54,5.346a56.064,56.064,0,0,1,4.435,7.533,38.343,38.343,0,0,0,2.742,5.756,8.211,8.211,0,0,0,1.178,1.382l-.348-.151a5.087,5.087,0,0,0,3.933,1.792h.18a1.026,1.026,0,0,0,.721-.331v.72c.071,2.569.058,5.3-.1,7.872l-.277-.158a2.209,2.209,0,0,0-2.575.3l-27.529,24.694s-5.986,9.152-5.149,24.953L414.7,279.835s-6.031,20.1-1.39,34.458,7.331,22.564,7.331,22.564,1.854,16.312,4.641,17.643,3.991,2.051,3.991,2.051l.554,3.9h0s.187.381.515,1.022c2.027,3.943,9.539,17.859,13.9,16.369a69.6,69.6,0,0,1,.708,11.433l4.319,32.415s3.012,8.814,2.826,13.434,3.514,11.2,3.514,11.2a23.646,23.646,0,0,0-1.854,15.074c1.764,8.634,3.991,48.41,3.991,48.41l3.218,9.642-.09,11.3a11.448,11.448,0,0,1-2,5.037c-2.085,2.533-1.931,5.461-6.958,8.922s-8.213,4.771-8.213,9.354a13.428,13.428,0,0,1-.154,1.907c-.463,3.367-1.365,5.195,7.878,6.174,10.858,1.151,18.1-6.764,18.1-6.764s1.6-3.238,9.114-4.547a2.866,2.866,0,0,0,2.71-2.691c.051-.878.039-2.554,0-4.4-.122-3.518-.425-7.627-.824-7.828-.5-.252-1.377-3.792-1.68-5.073h2.092s1.931-16.312,0-26.874a48.621,48.621,0,0,1-.187-18.053l-.373-27.9s-2.575-3.08-.554-8.519,0-32.307,0-32.307.747-9.642,2.877-11.9.1-14.124,0-14.743l3.8,14.239s1.667,28.306,5.2,33.429l1.017,12.822s7.234,11.8,5.844,18.154,1.487,29.335,1.487,29.335v23.493s-3.25,9.433,1.287,12.822l1.931-.086c-.644.669-1.139,1.676-1.892,2.547-.869,1-1.364,4.806-1.641,8.08-.232,2.77-.309,5.152-.309,5.152s1.931,3.454,5.568,3.691,15.621,10.426,15.621,10.426,11.836,0,14.9-.72l.18-.05a4.154,4.154,0,0,0,2.311-2.108,5.949,5.949,0,0,0,.554-3.878c-.38-2.022-1.815-4.238-4.995-6.123-7.91-4.663-9.088-9.03-9.088-9.03l-5.194-8.713h.74a40.76,40.76,0,0,1,5.194-19.593l-.367-45.64s2.317-15.693-1.667-24.212c0,0-.328-9.023,2.336-11.793s-3.546-30.767-3.546-30.767-1.287-15.031-2.8-28.745h0c6.263,6.641,12.757-17.269,13.851-21.521h.161l-.071-.309c.045-.2.071-.3.071-.3h0s-1.39-5.526-.373-4.4,3.527-3.08,3.527-3.08-.373-22.874,3.991-34.4S538.393,269.661,538.393,269.661Zm-18.666,14.556.032-.065c.644,13.966-.122,43.769-.122,43.769s-.862,3.821-1.783,8.318l-.644-28.313h0l-.644-26.673Zm-79.882-9.627s3.154,44.1,0,50.46a36.305,36.305,0,0,0-2.272,8.713c-1.043-3.058-3.25-10.239-2.459-14.045,1.023-4.922-2.04-17.852-2.04-18.154s-.277-7.2,1.931-12.462.759-7.548.759-7.548S437.619,272.92,439.846,274.59Z" transform="translate(-166.709 -62.612)" fill="url(#linear-gradient)"/>
    <path id="Path_6" data-name="Path 6" d="M458.22,454.505c-2.748,12.081-13.677-6.185-16.168-10.569-.322-.573-.5-.908-.5-.908l1.184-5.555L449,434.9a17.484,17.484,0,0,1,2.806,1.828C455.234,439.425,460.338,445.147,458.22,454.505Z" transform="translate(-177.399 -144.341)" fill="#d38884"/>
    <path id="Path_7" data-name="Path 7" d="M589.208,432.936a.844.844,0,0,1-.071.27,1.376,1.376,0,0,1-.084.29c-1.075,3.772-7.447,25.005-13.6,19.11-6.732-6.436-3.463-21.317-3.463-21.317h.045l14.16-1.448L589,432.724h0Z" transform="translate(-223.6 -142.82)" fill="#d38884"/>
    <path id="Path_8" data-name="Path 8" d="M538.495,538.336l.36,40.549c-5.555,9.2-5.1,17.378-5.1,17.378l-18.305.721c-4.467-3.006-1.287-11.38-1.287-11.38v-20.88s-2.826-20.4-1.461-26.048-5.735-16.091-5.735-16.091l-1-11.386c-3.463-4.55-5.1-29.685-5.1-29.685l-3.714-12.693c.1.547,2.034,11.141,0,13.092s-2.826,10.562-2.826,10.562,2,23.866,0,28.687.541,7.563.541,7.563l.367,24.774a38.74,38.74,0,0,0,.18,16.027c1.912,9.378,0,23.866,0,23.866H475.772l.09-10.112-3.18-8.56s-2.188-35.336-3.92-42.989a19.206,19.206,0,0,1,1.815-13.388s-3.637-5.825-3.456-9.925-2.806-11.92-2.806-11.92l-4.235-28.777a55.908,55.908,0,0,0-2.1-16.393c-2.459-8.2-6.1-18.949-6.1-18.949l4.113.367,20.751,1.847s50.455-3.392,52.714-.573a9.469,9.469,0,0,1,.953,2.941c2.266,10.176,5.258,42.055,5.258,42.055s6.1,24.864,3.482,27.322-2.3,10.466-2.3,10.466C540.779,524.369,538.495,538.336,538.495,538.336Z" transform="translate(-181.08 -134.561)" fill="#444053"/>
    <path id="Path_9" data-name="Path 9" d="M499.5,695.75c-.142,2.259-2.658,2.394-2.658,2.394-7.376,1.159-8.947,4.029-8.947,4.029a23.691,23.691,0,0,1-17.758,6.012c-9.075-.875-8.194-2.491-7.724-5.484a11.35,11.35,0,0,0,.148-1.686c0-4.1,3.141-5.265,8.058-8.367s4.782-5.67,6.829-7.923,2.259-6.623,2.259-6.623c2.317-4.036,8.194.644,8.194.644.277,1.429,9.011,1.229,9.011,1.229s1.159,4.647,1.757,4.917c.393.18.689,3.823.8,6.951C499.537,693.484,499.55,694.971,499.5,695.75Z" transform="translate(-184.737 -209.169)" fill="#b07473"/>
    <path id="Path_10" data-name="Path 10" d="M499.5,704.274c-.142,2.259-2.658,2.394-2.658,2.394-7.376,1.159-8.947,4.029-8.947,4.029a23.691,23.691,0,0,1-17.758,6.012c-9.075-.875-8.194-2.491-7.724-5.484,4.055,1,11.8,2.407,16.329-.052,6.288-3.411,10.8-5.793,10.8-5.793l9.938-5C499.537,702.008,499.55,703.5,499.5,704.274Z" transform="translate(-184.737 -217.693)" opacity="0.1"/>
    <path id="Path_11" data-name="Path 11" d="M585.607,709.351a3.927,3.927,0,0,1-2.266,1.873l-.174.045c-3.006.644-14.623.644-14.623.644s-11.746-9.082-15.3-9.288a7.472,7.472,0,0,1-5.465-3.283s.071-2.111.3-4.57c.277-2.909.759-6.289,1.616-7.177,1.57-1.641,1.931-3.862,5.464-2.459,0,0,5.046-8.9,10.993-2.021l6.153,9.333s1.159,3.862,8.953,8.052c3.115,1.673,4.505,3.643,4.9,5.439A4.8,4.8,0,0,1,585.607,709.351Z" transform="translate(-215.255 -210.612)" fill="#b07473"/>
    <path id="Path_12" data-name="Path 12" d="M585.607,717.248c-.7.586-1.461,1.217-2.266,1.873l-.174.045c-3.006.644-14.623.644-14.623.644s-11.746-9.082-15.3-9.288a7.472,7.472,0,0,1-5.465-3.282s.071-2.111.3-4.57c3.617,1.081,9.095,2.993,10.562,5.053,2.253,3.134,9.095,7.511,9.095,7.511s12.757-1.229,18.421-1.4A4.8,4.8,0,0,1,585.607,717.248Z" transform="translate(-215.255 -218.509)" opacity="0.1"/>
    <path id="Path_13" data-name="Path 13" d="M510.584,219.7l-16.8,17.758s-20.358-1.5-16.805-7.511c1.809-3.064,2.092-9.474,1.931-15.048-.148-5.374-.7-9.951-.7-9.951s28.552-14.212,26.389-.959a21.813,21.813,0,0,0-.077,7.563C505.737,218.248,510.584,219.7,510.584,219.7Z" transform="translate(-189.876 -73.185)" fill="#d38884"/>
    <path id="Path_14" data-name="Path 14" d="M505.484,203.991a21.81,21.81,0,0,0-.077,7.563,20.957,20.957,0,0,1-14.945,6.237c-3.862,0-8.039-3.173-11.161-5.008-.148-5.381-.18-7.833-.18-7.833S507.672,190.739,505.484,203.991Z" transform="translate(-190.787 -73.587)" opacity="0.1"/>
    <path id="Path_15" data-name="Path 15" d="M506.12,182.525a21.041,21.041,0,1,1-7.917-16.439A21.04,21.04,0,0,1,506.12,182.525Z" transform="translate(-185.412 -62.167)" fill="#d38884"/>
    <path id="Path_16" data-name="Path 16" d="M532.174,437.159c-5.239,12.467-38.94,12.725-38.94,12.725V436.29l-2.04-.135c.882,3.894-1.236,13.388-1.236,13.388-26.634,3.759-33.128-11.418-33.128-11.418l.927-5.194,20.751,1.847s50.455-3.392,52.714-.573A9.464,9.464,0,0,1,532.174,437.159Z" transform="translate(-182.844 -144.046)" opacity="0.1"/>
    <path id="Path_17" data-name="Path 17" d="M493.234,375.064V361.47l-2.04-.129c.882,3.862-1.236,13.388-1.236,13.388-20.043,2.826-28.681-5.065-31.725-9.146a12.455,12.455,0,0,1-1.4-2.266l8.136-45.763L466.9,250.2l2.916-11.817.676-5.67v-.064h.071l2.073.888,12.4,5.362,14.089-10.639.206-.148.7-.534,1.165.933,2.9,2.324,9.288,59.981s16.091,46.181,19.1,64.821c.122.747.219,1.442.3,2.092C534.768,374.748,493.234,375.064,493.234,375.064Z" transform="translate(-182.844 -78.437)" fill="#04c0ce"/>
    <circle id="Ellipse_27" data-name="Ellipse 27" cx="1.197" cy="1.197" r="1.197" transform="translate(302.499 157.267)" fill="#67647e"/>
    <circle id="Ellipse_28" data-name="Ellipse 28" cx="1.197" cy="1.197" r="1.197" transform="translate(303.053 169.124)" fill="#67647e"/>
    <circle id="Ellipse_29" data-name="Ellipse 29" cx="1.197" cy="1.197" r="1.197" transform="translate(304.25 188.319)" fill="#67647e"/>
    <circle id="Ellipse_30" data-name="Ellipse 30" cx="1.197" cy="1.197" r="1.197" transform="translate(306.226 208.995)" fill="#67647e"/>
    <circle id="Ellipse_31" data-name="Ellipse 31" cx="1.197" cy="1.197" r="1.197" transform="translate(307.423 228.406)" fill="#67647e"/>
    <circle id="Ellipse_32" data-name="Ellipse 32" cx="1.197" cy="1.197" r="1.197" transform="translate(308.62 249.082)" fill="#67647e"/>
    <circle id="Ellipse_33" data-name="Ellipse 33" cx="1.197" cy="1.197" r="1.197" transform="translate(308.144 269.534)" fill="#67647e"/>
    <path id="Path_18" data-name="Path 18" d="M471.283,326.913s-1.339,17.526-3.8,22.624-3.553,19.4-3.553,19.4l-5.709-.644a12.458,12.458,0,0,1-1.4-2.266l8.136-45.763,1.931-67.35,2.922-11.824.676-5.67.077-.032a2.3,2.3,0,0,1,2.034.032l.27.142q-.122.348-.232.714c-2.227,6.971-3.057,19.818-3.057,19.818s3.218,23.5,3.553,34.428S471.283,326.913,471.283,326.913Z" transform="translate(-182.84 -81.139)" opacity="0.1"/>
    <path id="Path_19" data-name="Path 19" d="M451.8,436.747a3.294,3.294,0,0,1-.219.425c-2.214,3.74-7.827,6.115-9.532,6.765-.322-.573-.5-.908-.5-.908l1.184-5.555L449,434.9A17.494,17.494,0,0,1,451.8,436.747Z" transform="translate(-177.399 -145.003)" opacity="0.1"/>
    <path id="Path_20" data-name="Path 20" d="M426.7,298.81l-5.194,3.1-4.731,21.041s-5.921,17.848-1.371,30.6,7.2,20.049,7.2,20.049,1.821,14.482,4.557,15.666,3.913,1.822,3.913,1.822l.547,3.463s7.415-2.517,10.034-6.951-1.931-15.447-1.931-15.447-3.913-9.384-2.909-13.755-2.008-15.846-2.008-16.091-.27-6.378,1.931-11.071.734-6.694.734-6.694L436.1,311.149Z" transform="translate(-167.47 -100.963)" fill="#67647e"/>
    <path id="Path_21" data-name="Path 21" d="M555.837,360.294s-13.755,5.188-18.125.644-3.92-25.868-3.92-25.868-4.184-39.346-6.829-45.808-1.287-53.1-1.287-53.1-1.777-6.031-3.328-7.608a1.683,1.683,0,0,0-.328-.264l.534.116,1.867.4,2.9,2.324,9.288,59.981s16.091,46.181,19.1,64.821Z" transform="translate(-206.075 -79.16)" opacity="0.1"/>
    <path id="Path_22" data-name="Path 22" d="M589.64,433.476h-.154c-1.731.225-17.011,2.073-17.076-1.107a9.314,9.314,0,0,1,.058-1.1l14.16-1.448,2.806,2.883h0c.052.187.09.348.129.476Z" transform="translate(-224.032 -143.673)" opacity="0.1"/>
    <path id="Path_23" data-name="Path 23" d="M574.978,266.07l10.041,5.239s8.367,21.665,9.706,30.953c0,0,6.2,24.883,1.931,35.117s-3.913,30.547-3.913,30.547-2.459,3.733-3.463,2.735.367,3.913.367,3.913-17.166,2.279-17.237-1.094,3.939-19.489,3.939-19.489,1.094-38.342-.457-44.353S574.978,266.07,574.978,266.07Z" transform="translate(-224.032 -90.945)" fill="#67647e"/>
    <path id="Path_24" data-name="Path 24" d="M525.312,329.52s-5.651,13.838-7.473,14.752.367,4.551.367,4.551S528.5,334.437,525.312,329.52Z" transform="translate(-204.327 -112.935)" opacity="0.1"/>
    <path id="Path_25" data-name="Path 25" d="M519.729,254.1c.064-.264-6.739,6.675-8.56,7.724S517.818,261.755,519.729,254.1Z" transform="translate(-202.117 -90.595)" opacity="0.1"/>
    <path id="Path_26" data-name="Path 26" d="M490.122,327.82s-10.382,6.713-9.011,9.371S490.122,327.82,490.122,327.82Z" transform="translate(-191.452 -112.744)" opacity="0.1"/>
    <path id="Path_27" data-name="Path 27" d="M524.47,480.07s8.837,5.683,22.585,7.08Z" transform="translate(-206.948 -158.696)" opacity="0.1"/>
    <path id="Path_28" data-name="Path 28" d="M491.5,501.3s8.194,10.3,11.933,10.562S491.5,501.3,491.5,501.3Z" transform="translate(-195.199 -164.913)" opacity="0.1"/>
    <path id="Path_29" data-name="Path 29" d="M503.856,564c-.367.18-4.647,9.288-9.011,9.564S503.856,564,503.856,564Z" transform="translate(-196.079 -183.836)" opacity="0.1"/>
    <path id="Path_30" data-name="Path 30" d="M568.33,594.851s8.123-1.822,9.931,4C578.261,598.835,577.714,597.013,568.33,594.851Z" transform="translate(-222.578 -193.36)" opacity="0.1"/>
    <path id="Path_31" data-name="Path 31" d="M559.84,646.367s9.841-2.008,11.933.727S559.84,646.367,559.84,646.367Z" transform="translate(-219.553 -208.877)" opacity="0.1"/>
    <path id="Path_32" data-name="Path 32" d="M511.239,654c0,.09-10.015,2.008-9.655,3.283s10.684,1.094,11.051-.914a1.931,1.931,0,0,0-1.4-2.369Z" transform="translate(-198.789 -211.29)" opacity="0.1"/>
    <path id="Path_33" data-name="Path 33" d="M554.75,667.1s16.458-2.008,15.447,1.455S554.75,667.1,554.75,667.1Z" transform="translate(-217.739 -215.12)" opacity="0.1"/>
    <path id="Path_34" data-name="Path 34" d="M420.89,352.44c.09.27,10.839,1.731,12.294,5.194,0,0-10.562-4.924-12.229-4.924" transform="translate(-170.036 -120.313)" opacity="0.1"/>
    <path id="Path_35" data-name="Path 35" d="M439.772,396.16s-8.927,2.826-8.29,7.08S430.574,401.271,439.772,396.16Z" transform="translate(-173.799 -133.362)" opacity="0.1"/>
    <path id="Path_36" data-name="Path 36" d="M437.92,427.768s3.25-4.46,6.346-3.643S437.92,427.768,437.92,427.768Z" transform="translate(-176.105 -141.953)" opacity="0.1"/>
    <path id="Path_37" data-name="Path 37" d="M498.221,166.084a5.063,5.063,0,0,1-1.043.779c-2.575,1.5-3.283,3.81-4.505,6.475-1.139,2.439-2.394,5.02-4.692,6.4-2.967,1.789-6.874,1.133-9.957,2.69a7.724,7.724,0,0,0-4.119,7.614,21.959,21.959,0,0,0,.875,3.489,24.878,24.878,0,0,1,.94,7.576,1.28,1.28,0,0,1,0,.225,21.034,21.034,0,1,1,22.527-35.252Z" transform="translate(-185.43 -62.203)" opacity="0.1"/>
    <path id="Path_38" data-name="Path 38" d="M491.858,152.992c-2.311-4.853-7.337-7.93-12.506-9.429a21,21,0,0,0-12.145-.257,44.548,44.548,0,0,0-6.353,2.98c-3.9,1.97-8.187,3.527-11.122,6.765a3.39,3.39,0,0,0-1.114,2.716,7.586,7.586,0,0,0,1.1,1.97,5.977,5.977,0,0,1,.058,4.95,45.4,45.4,0,0,0-1.815,4.756,5,5,0,0,0,.978,4.769,17.829,17.829,0,0,0,1.841,1.287,9.691,9.691,0,0,1,1.744,1.982l3.476,4.75a48.179,48.179,0,0,1,4.351,6.687,31.869,31.869,0,0,0,2.69,5.1,5.824,5.824,0,0,0,4.879,2.607.946.946,0,0,0,.772-.367,1.018,1.018,0,0,0,.1-.483,24.7,24.7,0,0,0-.92-7.55,21.79,21.79,0,0,1-.875-3.489,7.756,7.756,0,0,1,4.119-7.614c3.089-1.558,7-.9,9.957-2.684,2.3-1.39,3.559-3.971,4.692-6.436,1.242-2.665,1.931-4.975,4.505-6.475S493.138,155.548,491.858,152.992Z" transform="translate(-179.613 -63.754)" fill="#3e3e3e"/>
    <path id="Path_39" data-name="Path 39" d="M501.63,693.06s3.218,4.1,2.381,6.436S501.63,693.06,501.63,693.06Z" transform="translate(-198.809 -215.085)" opacity="0.1"/>
    <path id="Path_40" data-name="Path 40" d="M569.28,705.888s.714-5.5,3.579-5.548,3.006-.3,5.194.547,4.242,2.15,3.585,2.343-3.765-3.141-6.958-1.435A22.988,22.988,0,0,0,569.28,705.888Z" transform="translate(-222.917 -217.653)" opacity="0.1"/>
    <path id="Path_41" data-name="Path 41" d="M482.063,248.62l9.011-6.314s-13.182-7.788-14.752-6.694-2.652,10.942-2.652,10.942Z" transform="translate(-188.845 -84.883)" opacity="0.1"/>
    <path id="Path_42" data-name="Path 42" d="M482,247.922l9.011-6.436s-13.182-7.788-14.752-6.694-2.652,11.482-2.652,11.482Z" transform="translate(-188.824 -84.634)" fill="#e1e7ef"/>
    <path id="Path_43" data-name="Path 43" d="M482,247.922l9.011-6.436s-13.182-7.788-14.752-6.694-2.652,11.482-2.652,11.482Z" transform="translate(-188.824 -84.634)" fill="#04c0ce"/>
    <path id="Path_44" data-name="Path 44" d="M460.689,234.714l-.27-.135a2.336,2.336,0,0,0-2.529.264l-27.033,21.929s-5.876,8.129-5.059,22.154l15.943,22.585s1.822-7.646,4-6.192c0,0,3.1,39.165,0,44.81s-4.46,26.775-4.46,26.775l10.472,1.184s1.094-14.3,3.553-19.4,3.8-22.624,3.8-22.624,2.214-25.462,1.847-36.391-3.553-34.428-3.553-34.428S458.294,241.472,460.689,234.714Z" transform="translate(-171.757 -80.9)" fill="#67647e"/>
    <path id="Path_45" data-name="Path 45" d="M515.671,242.062,504.44,237.9s14.3-15.666,16.091-6.977Z" transform="translate(-199.81 -82.703)" opacity="0.1"/>
    <path id="Path_46" data-name="Path 46" d="M515.671,241.212l-11.231-4.158s14.3-15.666,16.091-6.977Z" transform="translate(-199.81 -82.447)" fill="#e1e7ef"/>
    <path id="Path_47" data-name="Path 47" d="M515.671,241.212l-11.231-4.158s14.3-15.666,16.091-6.977Z" transform="translate(-199.81 -82.447)" fill="#04c0ce"/>
    <path id="Path_48" data-name="Path 48" d="M521.32,228.115a.644.644,0,0,1,.463.1Z" transform="translate(-205.826 -82.943)" opacity="0.1"/>
    <path id="Path_49" data-name="Path 49" d="M523,226.424l29.8,6.436s8.2,1.821,14.121,22.405-8.11,45.8-8.11,45.8l-3.1-2.632,1.551,60.109s-13.755,5.188-18.125.644-3.913-25.887-3.913-25.887-4.19-39.339-6.835-45.808-1.287-53.094-1.287-53.094S524.673,226.063,523,226.424Z" transform="translate(-206.424 -78.623)" fill="#67647e"/>
    <path id="Path_50" data-name="Path 50" d="M565.144,285.791c-.418.386-.908,18.575.914,32.42a176.689,176.689,0,0,0,5.149,24.954L568.5,287.7S566.418,284.606,565.144,285.791Z" transform="translate(-221.303 -98.526)" opacity="0.1"/>
    <path id="Path_51" data-name="Path 51" d="M559.7,261.6c.727.457,3.92,8.013,2.459,11.109S559.7,261.6,559.7,261.6Z" transform="translate(-219.503 -92.767)" opacity="0.1"/>
    <path id="Path_52" data-name="Path 52" d="M500.6,154.991a16.451,16.451,0,0,0-6.552-6.861,15.582,15.582,0,0,1,4.911,5.793c1.287,2.575.908,5.149-1.6,6.559s-3.283,3.81-4.505,6.475c-1.139,2.439-2.394,5.02-4.7,6.436-2.961,1.789-6.868,1.126-9.957,2.684a7.775,7.775,0,0,0-4.119,7.621,21.888,21.888,0,0,0,.882,3.482,24.9,24.9,0,0,1,.94,7.576,1.016,1.016,0,0,1-.1.483.92.92,0,0,1-.766.367,4.434,4.434,0,0,1-2.246-.418,5.226,5.226,0,0,0,3.862,1.513.759.759,0,0,0,.863-.85,24.7,24.7,0,0,0-.933-7.576,21.138,21.138,0,0,1-.882-3.489,7.756,7.756,0,0,1,4.119-7.614c3.089-1.558,7-.9,9.957-2.684,2.3-1.39,3.559-3.971,4.692-6.436,1.242-2.665,1.931-4.975,4.505-6.475S501.889,157.546,500.6,154.991Z" transform="translate(-188.531 -58.093)" opacity="0.33"/>
    <path id="Path_53" data-name="Path 53" d="M731.4,244.012c-8.869-.174-16.7-6.436-21.131-14.089a14.16,14.16,0,0,1-2.137-6.031,6.96,6.96,0,0,1,.245-1.442,14.947,14.947,0,0,0,.644-2.208,3.846,3.846,0,0,0,0-.9s0,0,0-.051a5.325,5.325,0,0,0-1.931-4.332c-1.184-1.114-2.671-1.931-3.907-3.038-3.81-3.347-4.969-8.715-5.04-13.825v-.27c.045-2.188.219-4.383.2-6.572a27.653,27.653,0,0,0-.161-3.72c-.367-3.1-1.545-6.25-3.978-8.226-6.346-5.149-17.018.212-23.589-4.654-1.6-1.191-2.89-2.948-4.827-3.411a8.133,8.133,0,0,0-4.409.6c-4.84,1.6-10.24,3.695-12.133,8.367-1.081,2.684-.779,5.748-1.77,8.464a42.279,42.279,0,0,1-2.768,5.11,8,8,0,0,0-1.03,4.267,4.817,4.817,0,0,0,.315,2.272,5.793,5.793,0,0,0,1.577,2.259,7.5,7.5,0,0,1-.94,1.506c-1.236,1.513-3.134,2.575-4.422,4.081-2.381,2.761-2.291,6.514-1.12,9.758s3.289,6.2,4.75,9.359c.644,1.371,1.133,2.9.483,4.267a12.239,12.239,0,0,1-2.137,2.484,7.807,7.807,0,0,0-1.931,4.312c-14.488,3.308-14.5,14.952-14.5,14.952h0l-7.827,19.682s-1.255,3.315-2.729,7.691l-9.262-1.661,6.436,10.775c-1.216,4.39-2.079,8.457-1.8,10.5,0,0-2.877,13.516,2.24,15.879l11.289,5.078a6.69,6.69,0,0,0,1.564.7l.457.206a1.21,1.21,0,0,0,1.056,0h.154a1.52,1.52,0,0,0,.644-.1,1.287,1.287,0,0,0,.566-.611.2.2,0,0,1,0-.064l3.379-.978,2.864,3.392c1.287.908,2.575,1.693,3.791,2.4l-4.435,44.038s-.714,58.571-2.877,71.92a37.384,37.384,0,0,0-.5,10.607l-.084.142c.534,3.765,1.931,4.505,1.931,4.505v-.052a.416.416,0,0,0,.084.052,37.916,37.916,0,0,1,2.317-4.969v.965c-.045,4.969-.2,11.927-.714,16.451-.875,7.724,2.24,33.18,2.24,33.18l1.075,23.171a21.422,21.422,0,0,1-2.639,11.289c-2.575,4.628-5.863,11.141-6.1,14.031a2.89,2.89,0,0,0,0,.47h0l-5.522,6.642s-2.156,3.334,2.716,4.679c2.62.727,7.138,0,10.768-.856a7.2,7.2,0,0,0,5.58-7,24.78,24.78,0,0,1,4.557-8.747l.908,5.336,6.076,1.506.779-14.623a6.437,6.437,0,0,0,.418-2.575h0c1.2-10.4-2.819-9.468-2.819-9.468a.56.56,0,0,1,.193.36l-.193-.354h0c-2.465-4.866-1.287-12.873-1.287-12.873s3.218-23.171,4.319-29.292c.792-4.325.463-18.485.2-26.389a9.444,9.444,0,0,0-.032-.959c9.423-.122,20.97-.438,29.073-1.223v.953l-1.493,54.742a30.05,30.05,0,0,1-2.1,10.182.556.556,0,0,1-.071.187,44.41,44.41,0,0,0-2.967,14.347l-.7,17.378v.483h0c-1.21.463-3.122,1.809-3.173,5.709-.084,5.716,9.989,3.81,9.989,3.81,10.067,0,10.15-10.478,10.15-10.478s.315-9.61.8-16.039-1.519-5.014-1.519-5.014l-.154,18.292V534.821l.154-2.324v-.064h0v-.5l1.268-18.865s9.275-31.435,10.71-37.466c1.023-4.287.6-17.2.264-24.336a5.665,5.665,0,0,0-.052-.946c2.877-.258,5.419-.283,6.436-.283h.47s-.476-50.487-1.68-69.513-3.115-36.436-7.91-41.676c-2.9-3.167-6.932-12.944-9.655-20.185a100.97,100.97,0,0,0,17.745,5.793c15.183,3.18,13.1-10,13.1-10L722.7,289.53h.1a127.1,127.1,0,0,0-1.673-19.489,57.34,57.34,0,0,0-3.913-14.16c1.648-.644,3.276-1.332,4.872-2.04,4.126-1.821,8.773-4.4,9.365-8.85h-.2a5.743,5.743,0,0,0,.155-.978Zm-94.119,36.044h0c.032,2.575-.064,7.041-.219,11.978l-4.821-6.436,4.834-7.84ZM701.881,293.128Zm2.008,9.738-8.033-2.575a36.046,36.046,0,0,1,4.963-6.14l.7-.644-.251.051.386-.354.232-.051-.367.354.438-.09a13.7,13.7,0,0,0,2.735,5.5c2.883,3.147-.792,3.945-.792,3.945Z" transform="translate(-235.981 -29.085)" fill="url(#linear-gradient-2)"/>
    <path id="Path_54" data-name="Path 54" d="M646.614,715.66l-.94,17.816-5.992-1.5-1.262-7.408Z" transform="translate(-227.5 -210.175)" fill="#a27772"/>
    <path id="Path_55" data-name="Path 55" d="M646.614,715.66l-.94,17.816-5.992-1.5-1.262-7.408Z" transform="translate(-227.5 -210.175)" opacity="0.1"/>
    <path id="Path_56" data-name="Path 56" d="M716.48,704.217l9.14,1.892,6.777-5.986v-16.87l.154-2.3v-.071h0v-.489l1.262-18.749s9.146-31.21,10.569-37.2c1-4.248.586-17.069.251-24.156-.135-2.9-.251-4.847-.251-4.847L724.2,590.55l-.425,15.512L722.3,660.411a30.119,30.119,0,0,1-2.066,10.112l-.071.187a44.227,44.227,0,0,0-2.928,14.237l-.682,17.282v.476Z" transform="translate(-275.373 -178.554)" fill="#cc818c"/>
    <path id="Path_57" data-name="Path 57" d="M741.45,730.143v.476h0v-.489Z" transform="translate(-284.271 -228.295)" opacity="0.1"/>
    <path id="Path_58" data-name="Path 58" d="M716.48,764.089l9.14,1.892L732.4,760V758.56a1.931,1.931,0,0,1-.972,1.545l-.1.058a18.213,18.213,0,0,1-10.26,2.027l-3.566-.3a3.341,3.341,0,0,0-.946.232v.476Z" transform="translate(-275.373 -238.426)" opacity="0.1"/>
    <path id="Path_59" data-name="Path 59" d="M729.625,750.7l.1-.052a1.931,1.931,0,0,0,.985-1.673l.148-18.157s1.97-1.409,1.493,4.975-.785,15.924-.785,15.924-.077,10.4-10.009,10.4c0,0-9.931,1.892-9.854-3.785s4.1-5.909,4.1-5.909l3.566.309A18.171,18.171,0,0,0,729.625,750.7Z" transform="translate(-273.669 -228.492)" fill="#b07473"/>
    <path id="Path_60" data-name="Path 60" d="M642.52,703.648c.232,4.1,12.294,1.731,12.294,1.731l8.116-15.756s6.778-5.207,3.386-9.777a7.291,7.291,0,0,1-.5-.779l-.032-.039h0c-.071-.116-.135-.238-.2-.367h0c-2.433-4.827-1.236-12.744-1.236-12.744s3.147-23.017,4.254-29.086c.779-4.286.457-18.35.2-26.215-.1-3.27-.2-5.464-.2-5.464l-20.024-5.362v5.973c-.045,4.937-.2,11.843-.708,16.336-.863,7.64,2.208,32.941,2.208,32.941l1.062,23.023a21.324,21.324,0,0,1-2.575,11.206c-2.51,4.6-5.793,11.07-6.018,13.935A2.837,2.837,0,0,0,642.52,703.648Z" transform="translate(-249.016 -181.847)" fill="#cc818c"/>
    <path id="Path_61" data-name="Path 61" d="M642.517,747.541c.232,4.1,12.293,1.731,12.293,1.731l8.116-15.756s6.778-5.207,3.385-9.777a7.289,7.289,0,0,1-.5-.779c-.109,2.388-2.729,8.367-2.729,8.367s-6.7,13.407-8.831,16.477-11.386-.573-11.733-.7a2.825,2.825,0,0,0-.007.438Z" transform="translate(-249.013 -225.74)" opacity="0.1"/>
    <path id="Path_62" data-name="Path 62" d="M662.274,722.288s3.965-.92,2.781,9.4h0a6.649,6.649,0,0,1-3.135,5.9c-2.839,1.783-7.215,5.619-9.429,13.079h0a7.131,7.131,0,0,1-5.5,6.951c-3.579.837-8.039,1.571-10.62.85-4.808-1.339-2.677-4.647-2.677-4.647l5.516-6.546s9.616,3.785,11.74.708,8.831-16.471,8.831-16.471S663.452,723.157,662.274,722.288Z" transform="translate(-245.702 -225.493)" fill="#b07473"/>
    <path id="Path_63" data-name="Path 63" d="M728.245,593.52l-.425,15.512c5.374-.521,9.223-1.249,9.88-2.272,1.422-2.2,6.584-3.128,10.974-3.508-.135-2.9-.251-4.847-.251-4.847Z" transform="translate(-279.414 -192.355)" opacity="0.1"/>
    <path id="Path_64" data-name="Path 64" d="M651.94,608.693a7.364,7.364,0,0,1,2.208-2.665c2.124-1.178,1.892,7.569,1.892,7.569s7.08.064,16.123-.051c-.1-3.27-.2-5.471-.2-5.471L651.94,602.72S651.979,605.2,651.94,608.693Z" transform="translate(-252.373 -195.408)" opacity="0.1"/>
    <path id="Path_65" data-name="Path 65" d="M647.235,534.308s2.369-6.436,4.505-7.582,1.892,7.563,1.892,7.563,52.019.476,54.619-3.546,17.732-3.785,17.732-3.785-.47-50.127-1.654-69.037-3.07-36.179-7.8-41.38c-3.057-3.366-7.408-14.257-10.1-21.517C704.969,391.06,704,388.17,704,388.17L654.347,391l-.406,4.023-5.271,52.727s-.708,58.166-2.838,71.405S647.235,534.308,647.235,534.308Z" transform="translate(-249.953 -123.682)" fill="#444053"/>
    <g id="Group_1" data-name="Group 1" transform="translate(395.254 264.488)" opacity="0.1">
      <path id="Path_66" data-name="Path 66" d="M710.518,530.743c2.575-4.016,17.732-3.785,17.732-3.785s-.47-50.127-1.654-69.037-3.07-36.179-7.8-41.38c-3.07-3.379-7.408-14.257-10.1-21.517-1.229-3.334-2.111-5.9-2.356-6.636l3.862-.219s.972,2.89,2.439,6.855c2.69,7.26,7.035,18.151,10.092,21.517,4.731,5.2,6.623,22.463,7.8,41.38s1.661,69.037,1.661,69.037-15.132-.232-17.739,3.785c-2.221,3.431-40.5,3.591-51.607,3.559C677.107,534.27,708.51,533.845,710.518,530.743Z" transform="translate(-651.516 -388.17)"/>
      <path id="Path_67" data-name="Path 67" d="M647.731,603.379c.959-.534,1.435.946,1.673,2.742a37.128,37.128,0,0,0-2.233,4.84s-1.371-.74-1.931-4.506A8.76,8.76,0,0,1,647.731,603.379Z" transform="translate(-645.24 -464.823)"/>
    </g>
    <path id="Path_68" data-name="Path 68" d="M666.748,195.8c-3.437,4.686.039,11.347-3.649,15.9-1.216,1.506-3.089,2.575-4.357,4.055-2.349,2.742-2.259,6.469-1.107,9.687s3.218,6.153,4.686,9.294c.644,1.358,1.12,2.884.476,4.235a12,12,0,0,1-2.111,2.465c-2.369,2.645-2.433,6.321-1.159,9.436s3.707,5.793,6.108,8.432c.946,1.036,2.143,2.182,3.72,2.15a5.149,5.149,0,0,0,2.336-.766,23.815,23.815,0,0,0,10.839-31.081c-2-4.782-5.323-9.365-5.355-14.418,0-4.01,2.06-7.84,2.426-11.83.444-4.853-2.426-12.557-8.284-14.675C671.7,191.805,668.492,193.4,666.748,195.8Z" transform="translate(-254.122 -69.586)" fill="#585268"/>
    <path id="Path_69" data-name="Path 69" d="M666.748,195.8c-3.437,4.686.039,11.347-3.649,15.9-1.216,1.506-3.089,2.575-4.357,4.055-2.349,2.742-2.259,6.469-1.107,9.687s3.218,6.153,4.686,9.294c.644,1.358,1.12,2.884.476,4.235a12,12,0,0,1-2.111,2.465c-2.369,2.645-2.433,6.321-1.159,9.436s3.707,5.793,6.108,8.432c.946,1.036,2.143,2.182,3.72,2.15a5.149,5.149,0,0,0,2.336-.766,23.815,23.815,0,0,0,10.839-31.081c-2-4.782-5.323-9.365-5.355-14.418,0-4.01,2.06-7.84,2.426-11.83.444-4.853-2.426-12.557-8.284-14.675C671.7,191.805,668.492,193.4,666.748,195.8Z" transform="translate(-254.122 -69.586)" opacity="0.47"/>
    <path id="Path_70" data-name="Path 70" d="M710.567,464.55c-6.881.36-13.355,3.321-19.38,6.668s-11.856,7.138-18.337,9.513" transform="translate(-259.825 -153.587)" opacity="0.1"/>
    <path id="Path_71" data-name="Path 71" d="M706.928,489.74a28.365,28.365,0,0,0-17.861,8.689c-1.673,1.77-3.115,3.752-4.859,5.452a21.588,21.588,0,0,1-9.577,5.426" transform="translate(-260.459 -160.977)" opacity="0.1"/>
    <path id="Path_72" data-name="Path 72" d="M705.437,508.91a31.23,31.23,0,0,0-14.366,8.663c-1.055,1.139-2.014,2.356-3.07,3.495-5.7,6.115-13.742,9.359-21.51,12.429" transform="translate(-257.558 -166.452)" opacity="0.1"/>
    <path id="Path_73" data-name="Path 73" d="M710.97,242.876a141.281,141.281,0,0,0,1.416,16.426c.644,3.862,1.545,7.337,2.839,8.876,3.785,4.506-18.44,10.524-18.44,10.524l-13.124-10.17s10.4-9.577,5.555-18.917S710.97,242.876,710.97,242.876Z" transform="translate(-263.677 -86.421)" fill="#cc818c"/>
    <path id="Path_74" data-name="Path 74" d="M658.79,395.025h52.489c-1.461-3.965-2.433-6.855-2.433-6.855L659.2,391Z" transform="translate(-254.814 -131.02)" opacity="0.1"/>
    <path id="Path_75" data-name="Path 75" d="M647.867,352.766h56.119c-1.577-5.645,0-10.865,2.246-14.881a32.888,32.888,0,0,1,5.876-7.621l.386-.354,19.592-4.338,1.056-.232s.161-35.625-12.454-40.517a73.754,73.754,0,0,1-20.178-11.5l-17.333,5.355-12.77-6.436c-4.1,4.409-14.978,2.678-14.978,2.678-17.81,2.047-17.81,15.447-17.81,15.447s10.4,24.272,11.193,24.272S647.867,352.766,647.867,352.766Z" transform="translate(-247.27 -93.822)" fill="#152d76"/>
    <path id="Path_76" data-name="Path 76" d="M675.148,358.3s-11.444-2.536-15.338-6.971" transform="translate(-255.178 -119.917)" opacity="0.1"/>
    <path id="Path_77" data-name="Path 77" d="M765.942,341.51,752.67,352.388a22.613,22.613,0,0,0,.438,2.575l.386-.354,19.592-4.338Z" transform="translate(-288.27 -116.737)" opacity="0.1"/>
    <path id="Path_78" data-name="Path 78" d="M717.46,382.917s2.9,1.635,7.35,3.785h7.627c-1.577-5.645,0-10.865,2.246-14.881l-13.446-4.351C725.815,371.724,717.46,382.917,717.46,382.917Z" transform="translate(-275.722 -124.32)" opacity="0.1"/>
    <path id="Path_79" data-name="Path 79" d="M636.767,293.76l-7.878,4.254-7.724,19.547s-8.039,21.433-7.254,27.11c0,0-2.832,13.4,2.208,15.763l13.13,5.947a1.223,1.223,0,0,0,1.577-1.686c-1.873-3.546-3.933-9.095-.644-12.145l-3.785-7.878,13.677-22.386,4.57-7.724Z" transform="translate(-238.539 -100.41)" fill="#152d76"/>
    <path id="Path_80" data-name="Path 80" d="M677.033,352.2c.682,2.781,2.986,7.08,10.614,8.683l8.367,6.855,8.9,4.036,3.63,1.641,1.538-11.116-3.495-1.931-4.074-2.227s-9.191-16.651-23.744-9.655A3.218,3.218,0,0,0,677.033,352.2Z" transform="translate(-261.279 -117.842)" opacity="0.1"/>
    <path id="Path_81" data-name="Path 81" d="M677.781,350.754c.682,2.787,2.98,7.08,10.607,8.683l8.367,6.855,8.908,4.036,3.624,1.641,1.538-11.116-3.495-1.931-4.042-2.208s-9.2-16.651-23.75-9.622A3.218,3.218,0,0,0,677.781,350.754Z" transform="translate(-261.55 -117.421)" fill="#cc818c"/>
    <circle id="Ellipse_34" data-name="Ellipse 34" cx="20.333" cy="20.333" r="20.333" transform="translate(412.298 127.956)" opacity="0.1"/>
    <circle id="Ellipse_35" data-name="Ellipse 35" cx="20.333" cy="20.333" r="20.333" transform="translate(412.298 127.443)" fill="#cc818c"/>
    <path id="Path_82" data-name="Path 82" d="M719.495,289.139l-6.115-11.882s8.947-3.617,9.6-7.807,8.573,4.911,6.861,7.93S719.495,289.139,719.495,289.139Z" transform="translate(-274.268 -94.553)" opacity="0.1"/>
    <path id="Path_83" data-name="Path 83" d="M719.495,287.669l-6.115-11.882s8.947-3.617,9.6-7.807,8.573,4.917,6.861,7.93S719.495,287.669,719.495,287.669Z" transform="translate(-274.268 -94.113)" fill="#374b87"/>
    <path id="Path_84" data-name="Path 84" d="M631.631,344.415l33.785,45.422s-12.454,6.777-29.607-5.355l-7.408-8.831L607.25,340Z" transform="translate(-236.448 -114.858)" fill="#f6f8fb"/>
    <path id="Path_85" data-name="Path 85" d="M634.362,378.751l3.077-.084s18.794-18.241,23.409-9.011-11.708,17.855-11.708,17.855l-4.962,2.678-6.469,1.931-4.139-5.555Z" transform="translate(-245.827 -123.968)" fill="#cc818c"/>
    <path id="Path_86" data-name="Path 86" d="M636.543,394.013a4.592,4.592,0,0,1,.077,3.18,1.287,1.287,0,0,1-.56.611,1.436,1.436,0,0,1-.644.09,6.468,6.468,0,0,1-4.242-2.1,19.366,19.366,0,0,1-2.748-3.978c-.837-1.461-1.706-3.077-1.41-4.737.335-1.809,1.931-3.064,3.495-4.081,3.115-2.06,3.218.341,3.9,2.993S635.829,391.335,636.543,394.013Z" transform="translate(-243.471 -128.887)" opacity="0.1"/>
    <path id="Path_87" data-name="Path 87" d="M635.812,394.013a4.629,4.629,0,0,1,.077,3.18,1.286,1.286,0,0,1-.56.611,1.448,1.448,0,0,1-.644.09,6.436,6.436,0,0,1-4.242-2.1,19.161,19.161,0,0,1-2.755-3.978c-.837-1.461-1.706-3.077-1.4-4.737.328-1.809,1.931-3.064,3.488-4.081,3.122-2.06,3.218.341,3.907,2.993S635.091,391.335,635.812,394.013Z" transform="translate(-243.209 -128.887)" fill="#433e98"/>
    <path id="Path_88" data-name="Path 88" d="M623.85,316.468l1.57-2.658-1.371,4.937Z" transform="translate(-222.307 -94.608)" opacity="0.1"/>
    <path id="Path_89" data-name="Path 89" d="M721.19,377.835l3.624,1.641,1.538-11.116-3.495-1.931C725.271,369.2,723.159,374.315,721.19,377.835Z" transform="translate(-277.051 -124.242)" opacity="0.1"/>
    <path id="Path_90" data-name="Path 90" d="M734.56,362.728s-11.7.714-16.67-2.478" transform="translate(-275.875 -122.761)" opacity="0.1"/>
    <g id="Group_2" data-name="Group 2" transform="translate(407.413 179.438)" opacity="0.1">
      <path id="Path_91" data-name="Path 91" d="M738.643,339.953a32.942,32.942,0,0,1,5.876-7.627,15.7,15.7,0,0,1,1.732-.94l18.241-3.746,1.056-.232s.161-35.625-12.448-40.517a75.772,75.772,0,0,1-19.67-11.077l1.384-.425a73.559,73.559,0,0,0,20.178,11.5c12.615,4.885,12.448,40.517,12.448,40.517h-1.892l-18.666,3.572s-.8.779-1.049,1a36.177,36.177,0,0,0-5.966,7.891,19.787,19.787,0,0,0-1.564,14.958h-1.931C734.814,349.19,736.423,343.97,738.643,339.953Z" transform="translate(-688.826 -274.289)"/>
      <path id="Path_92" data-name="Path 92" d="M664.13,277.932c.3-.045.592-.09.908-.122a32.638,32.638,0,0,0,3.862.315A35.1,35.1,0,0,1,664.13,277.932Z" transform="translate(-664.13 -275.152)"/>
      <path id="Path_93" data-name="Path 93" d="M699.307,280.136l-11.547-5.844a6.109,6.109,0,0,0,.644-.611l12.049,6.1Z" transform="translate(-672.551 -273.68)"/>
    </g>
    <path id="Path_94" data-name="Path 94" d="M754.112,340l7.724,9.462,1.577,25.694s2.047,13.079-12.924,9.925-32.3-12.9-32.3-12.9,8.367-11.193,3.785-15.447l21.44,6.938s3.624-.792.785-3.939-3.341-8.831-3.341-8.831Z" transform="translate(-275.982 -115.102)" fill="#152d76"/>
    <path id="Path_95" data-name="Path 95" d="M779.42,382.17l4.254,4.885A6.134,6.134,0,0,1,779.42,382.17Z" transform="translate(-297.802 -129.287)" opacity="0.1"/>
    <path id="Path_96" data-name="Path 96" d="M736.99,360.8l6.623,8.509-3.308.792Z" transform="translate(-262.626 -108.608)" opacity="0.1"/>
    <path id="Path_97" data-name="Path 97" d="M665.395,203.1c-.727-1.783-.167-3.862.708-5.542a43.776,43.776,0,0,0,2.735-5.078c.972-2.69.676-5.735,1.738-8.367,1.873-4.666,7.2-6.752,11.965-8.367a8.045,8.045,0,0,1,4.351-.592c1.931.457,3.186,2.208,4.763,3.386,6.475,4.827,17-.489,23.268,4.621,2.394,1.931,3.559,5.091,3.92,8.161s0,6.185-.039,9.281c-.1,5.419.914,11.347,4.969,14.939,1.223,1.081,2.665,1.892,3.862,3.012a5.273,5.273,0,0,1,1.931,4.306,14.928,14.928,0,0,1-.644,2.188c-.8,2.826.4,5.793,1.867,8.367,4.377,7.576,12.094,13.819,20.841,13.993-.586,4.415-5.149,6.977-9.236,8.786-5.149,2.311-10.633,4.576-16.3,4.287s-11.586-3.92-12.577-9.507c-.341-1.931-.3-4.254-1.931-5.259-1-.611-2.3-.457-3.386-.914-1.564-.644-2.336-2.4-2.851-4.016a36.15,36.15,0,0,1-1.68-10.3c-.071-4.145.476-8.67-1.873-12.081-2.175-3.16-6.037-4.763-8.548-7.666-2.317-2.69-4.834-5.934-8.631-6.436C679.362,203.564,668.5,210.7,665.395,203.1Z" transform="translate(-257.049 -65.302)" opacity="0.1"/>
    <path id="Path_98" data-name="Path 98" d="M665.395,201.63c-.727-1.783-.167-3.862.708-5.542a43.775,43.775,0,0,0,2.735-5.078c.972-2.69.676-5.735,1.738-8.367,1.873-4.673,7.2-6.758,11.965-8.367a8.045,8.045,0,0,1,4.351-.592c1.931.457,3.186,2.208,4.763,3.386,6.475,4.827,17-.489,23.268,4.621,2.394,1.931,3.559,5.091,3.92,8.168s0,6.179-.039,9.275c-.1,5.419.914,11.347,4.969,14.939,1.223,1.081,2.665,1.892,3.862,3.012a5.273,5.273,0,0,1,1.931,4.306,14.926,14.926,0,0,1-.644,2.188c-.8,2.826.4,5.793,1.867,8.367,4.39,7.55,12.075,13.813,20.822,13.986-.586,4.415-5.149,6.977-9.236,8.792-5.149,2.3-10.633,4.57-16.3,4.28s-11.586-3.92-12.577-9.507c-.341-1.931-.3-4.254-1.931-5.259-1-.611-2.3-.457-3.385-.914-1.564-.644-2.336-2.4-2.851-4.016a36.11,36.11,0,0,1-1.68-10.3c-.071-4.145.476-8.67-1.873-12.081-2.176-3.16-6.037-4.763-8.548-7.666-2.317-2.69-4.834-5.934-8.631-6.436C679.362,202.094,668.5,209.244,665.395,201.63Z" transform="translate(-257.049 -64.873)" fill="#262626"/>
    <path id="Path_99" data-name="Path 99" d="M685.779,287.992l11.656-9.461s-7.981-4.325-8.934-8.013-7.338,1.751-6.687,5.059S685.779,287.992,685.779,287.992Z" transform="translate(-263.003 -94.885)" opacity="0.1"/>
    <path id="Path_100" data-name="Path 100" d="M686.511,285.785l11.656-9.455s-7.981-4.325-8.9-8.013-7.338,1.751-6.688,5.059S686.511,285.785,686.511,285.785Z" transform="translate(-263.277 -94.225)" fill="#4f4c7b"/>
    <circle id="Ellipse_36" data-name="Ellipse 36" cx="0.927" cy="0.927" r="0.927" transform="translate(434.42 190.029)" opacity="0.1"/>
    <circle id="Ellipse_37" data-name="Ellipse 37" cx="0.927" cy="0.927" r="0.927" transform="translate(434.42 195.614)" opacity="0.1"/>
    <circle id="Ellipse_38" data-name="Ellipse 38" cx="0.927" cy="0.927" r="0.927" transform="translate(434.42 201.193)" opacity="0.1"/>
    <g id="Group_3" data-name="Group 3" transform="translate(408.158 116.232)" opacity="0.1">
      <path id="Path_101" data-name="Path 101" d="M672.22,192.367c.92-2.529.721-5.368,1.583-7.917a8.649,8.649,0,0,0-.985,1.815c-1.068,2.658-.766,5.7-1.744,8.367l-.064.154a14.709,14.709,0,0,0,1.21-2.42Z" transform="translate(-667.327 -184.45)"/>
      <path id="Path_102" data-name="Path 102" d="M743.717,263.924c-5.149,2.3-10.633,4.57-16.3,4.28s-11.586-3.92-12.577-9.5c-.341-1.931-.3-4.261-1.931-5.265-1-.611-2.3-.457-3.386-.914-1.564-.644-2.336-2.4-2.851-4.016a36.113,36.113,0,0,1-1.68-10.3c-.071-4.139.483-8.663-1.867-12.081-2.182-3.16-6.044-4.757-8.554-7.666-2.317-2.684-4.834-5.934-8.631-6.436-5.207-.708-16.091,6.436-19.168-1.171a5.986,5.986,0,0,1,.2-4.4c-.225.38-.444.759-.643,1.146-.875,1.712-1.429,3.765-.7,5.548,3.1,7.595,13.961.457,19.168,1.171,3.8.515,6.314,3.765,8.631,6.436,2.51,2.909,6.372,4.505,8.547,7.672,2.356,3.411,1.8,7.936,1.873,12.075a36.113,36.113,0,0,0,1.68,10.3c.515,1.622,1.287,3.36,2.851,4.016,1.081.457,2.382.309,3.386.914,1.661,1,1.616,3.353,1.931,5.265,1,5.58,6.913,9.21,12.577,9.5s11.122-1.97,16.3-4.28c3.733-1.661,7.891-3.958,9.011-7.724C749.793,260.944,746.626,262.63,743.717,263.924Z" transform="translate(-665.288 -192.294)"/>
    </g>
    <path id="Path_103" data-name="Path 103" d="M895.571,312.146c-13.626-7.84-18.775-9.77-18.8-9.77l-.283-.2a11.334,11.334,0,0,1-3.431-4.338,9.05,9.05,0,0,1,0-.933.39.39,0,0,0,0,.09c.212-4.151,3.167-7.93,5.966-11.225l7.164-8.425a8.3,8.3,0,0,0,1.847-2.922,6.74,6.74,0,0,0,.193-1.8q0-.367,0-.734c-.039-2.092-.1-4.19-.174-6.282-.064-1.828-.534-4.132-2.362-4.505-.953-.193-2.214.148-2.716-.644a1.565,1.565,0,0,1-.122-1.088.384.384,0,0,0,0,.09v-.1a24.24,24.24,0,0,0,.676-4.306,5.871,5.871,0,0,0-.3-2.182c-1.056-3.032-4.7-4.28-7.93-4.853s-6.842-1.062-8.863-3.585a26.218,26.218,0,0,0-1.764-2.427,6.957,6.957,0,0,0-3.3-1.628,18.666,18.666,0,0,0-11.991,1.043c-1.557.7-3.122,1.635-4.834,1.532s-3.3-1.339-5.046-1.635c-2.832-.483-5.542,1.6-6.938,4.061a9.931,9.931,0,0,0-1.287,4.789v.283h0a7,7,0,0,0,1.841,4.892c1.223,1.287,3.038,2.137,3.547,3.8.206.676.154,1.41.341,2.1a1.867,1.867,0,0,0,.077.251l-.09.122a21.241,21.241,0,0,0-4.505,13.092,21.729,21.729,0,0,0,15.267,20.6v.644a9.26,9.26,0,0,1-2.961,7.209l-19.3,7.711s-11.637-1.384-15.834,15.621a29,29,0,0,0-.721,8.625c.154,2.575-.2,7.08-3.218,12.918-4.769,9.346-3.682,30.8,6.076,32.922,9.211,2.008,12.815,1.171,13.195,1.075v.373c-.154,4.029-1.615,38.747-6.926,42.944-1.468,1.165-1.2,1.931,0,2.478,0,0,0,.225-.032.644-.161,2.575-.978,12.229-4.505,17.713-4.126,6.372-3.695,43.124-3.695,43.124l-2.813,21.665s1.731,13.381,0,15.718c-1.551,2.079-3.611,51.581-4.042,62.317h-.18a5.226,5.226,0,0,0-4.171,2.575c-2.279,3.7-10.26,10.543-10.26,10.543-1.731,2.459-8.136,4.814-11.521,5.921a7.162,7.162,0,0,0-1.287.566,6.868,6.868,0,0,0-2.909,3.064,3.289,3.289,0,0,0-.309,2.575c.863,2.117,18.865,3.611,23.422,1.48,3.579-1.667,17.765-3.862,23.654-4.724a4.853,4.853,0,0,0,4.209-4.209,2.774,2.774,0,0,0-.541-2.1h0c-1.126-1.4-1.7-5.213-1.931-7.724a5.223,5.223,0,0,0,1.326-.785,56.542,56.542,0,0,1,3.218-22.727c4.338-11.47,5.638-32.71,4.557-46.516,0,0,13.227-56.923,23.641-62.233h0c.161.206,5.213,6.687,5.857,26.763.644,20.391,8.02,33.772,8.02,33.772s-3.257,34.621,0,47.578l-4.254,20.436c-.315-.264-.515-.47-.515-.47s.129.566.3,1.474l-.09.438.187.039c.483,2.575,1.2,7.009.9,9.655-.167,1.487-.586,3.527-.869,5.529-.451,3.147-.573,6.2,1.081,6.868,2.716,1.094,18.666,2.575,21.369-.927a5.014,5.014,0,0,0,.785-5.246,5.318,5.318,0,0,0-.785-1.339s-4.235-6.919-3.038-11.8a3.591,3.591,0,0,0-.508-2.8,143.89,143.89,0,0,1,3.65-22.888c2.716-10.221,8.438-32.633,4.229-47.365h0q-.238-.869-.541-1.7a63.616,63.616,0,0,1-2.388-24.851,50.651,50.651,0,0,1,0-21.665c2.607-11.894,4.428-23.577,4.428-23.577s1.435-15.718.18-25.353a6.314,6.314,0,0,0-.084-.644l.682-.155s-3.688-16.355-4.988-26.763c-.309-2.459-.708-5.567-1.146-8.889a22.694,22.694,0,0,0,3.534-.882c11.708-4.036,15.4-40.549,15.4-40.549V337.814S909.235,320,895.571,312.146ZM808.319,594.214c-.361-.18-.573-.3-.573-.3h0Z" transform="translate(-295.234 -53.574)" fill="url(#linear-gradient-3)"/>
    <path id="Path_104" data-name="Path 104" d="M906,622.239c5.078,14.6-.85,38.31-3.6,48.917a147.871,147.871,0,0,0-3.6,23.287,49.043,49.043,0,0,1-18.627-.425l4.448-21.8c-3.18-12.911,0-47.417,0-47.417s-7.2-13.336-7.833-33.656c-.644-20-5.555-26.466-5.709-26.666h0C860.916,569.77,848,626.5,848,626.5c1.056,13.755-.219,34.924-4.447,46.342a57.28,57.28,0,0,0-3.173,22.643c-1.48,1.287-3.54,1.468-5.793,1.107-6.044-.978-13.291-6.185-13.291-6.185s2.323-61.789,4.023-64.132,0-15.666,0-15.666l2.748-21.588s-.425-36.623,3.6-42.969c3.476-5.484,4.274-15.125,4.428-17.655v-.644l6.127-7.338s59.266-4.447,63.72,0c1.088,1.088,1.764,3.572,2.163,6.694,1.223,9.6-.18,25.263-.18,25.263s-1.776,11.643-4.319,23.493a51.574,51.574,0,0,0,0,21.594A64.644,64.644,0,0,0,906,622.239Z" transform="translate(-312.727 -152.856)" fill="#65617d"/>
    <path id="Path_105" data-name="Path 105" d="M934.757,809.418c-2.645,3.5-18.2,2.015-20.854.927-1.616-.644-1.493-3.714-1.056-6.848.277-1.989.682-4.023.85-5.5.418-3.81-1.287-11.54-1.287-11.54s3.489,3.707,4.332,0a4.037,4.037,0,0,1,3.025-2.871,7.9,7.9,0,0,1,5.5.341c2.748,1.2,7.331,3.74,6.513,7.177-1.165,4.86,2.961,11.759,2.961,11.759a5.358,5.358,0,0,1,.772,1.326A5.078,5.078,0,0,1,934.757,809.418Z" transform="translate(-345.195 -247.222)" fill="#a27772"/>
    <path id="Path_106" data-name="Path 106" d="M934.842,820.631c-2.645,3.495-18.2,2.015-20.854.927-1.616-.644-1.493-3.714-1.056-6.848,1.673.785,4.505,1.435,9.249,1a26.084,26.084,0,0,1,3.328-.1,77.392,77.392,0,0,0,10.105-.206A5.078,5.078,0,0,1,934.842,820.631Z" transform="translate(-345.279 -258.436)" opacity="0.1"/>
    <path id="Path_107" data-name="Path 107" d="M855.354,649.688c1.056,13.755-.219,34.924-4.448,46.342a57.284,57.284,0,0,0-3.173,22.643c-1.48,1.287-3.54,1.467-5.793,1.107,1.287-8.927,6.72-47.391,10.2-77.784,3.971-34.608,22.527-58.417,22.527-58.417l3.7,4.074C868.265,592.958,855.354,649.688,855.354,649.688Z" transform="translate(-320.082 -176.07)" opacity="0.1"/>
    <path id="Path_108" data-name="Path 108" d="M913.376,326.588l-2.575,12.7-12.66,21.272-15.608-6.668s-21.24-22.225-7.885-25.4a11.819,11.819,0,0,0,4.428-1.97,9.157,9.157,0,0,0,3.456-7.659,23.48,23.48,0,0,0-2.15-9.1l27.3-8.573a43.825,43.825,0,0,0-1.931,11.058c-.212,7.441,2.575,11.1,4.821,12.873A8.2,8.2,0,0,0,913.376,326.588Z" transform="translate(-330.166 -103.091)" fill="#fbbebe"/>
    <path id="Path_109" data-name="Path 109" d="M913.277,301.19a43.819,43.819,0,0,0-1.931,11.058,20.772,20.772,0,0,1-1.59,1.693,21.6,21.6,0,0,1-21.588,4.924,23.478,23.478,0,0,0-2.169-9.1Z" transform="translate(-335.783 -104.456)" opacity="0.1"/>
    <path id="Path_110" data-name="Path 110" d="M909.338,283.808a21.491,21.491,0,1,1-6.3-15.295A21.594,21.594,0,0,1,909.338,283.808Z" transform="translate(-328.709 -92.081)" fill="#fbbebe"/>
    <path id="Path_111" data-name="Path 111" d="M913.376,339.827l-2.575,12.7L898.141,373.8l-15.608-6.668s-21.24-22.225-7.885-25.4a11.819,11.819,0,0,0,4.428-1.97c-2.407,6.617,7.531,20.384,7.531,20.384,1.159,1.706,3.81.644,3.81.644,6.4-.972,18.189-19.386,20.114-22.45A8.2,8.2,0,0,0,913.376,339.827Z" transform="translate(-330.166 -114.995)" opacity="0.1"/>
    <path id="Path_112" data-name="Path 112" d="M916.366,527.115c-3.759.856-24.555,5.458-32.439,4.306-8.676-1.287-25.546-2.111-25.546-2.111s-10.742.579-14.051-.933v-.644l6.127-7.338s59.266-4.448,63.72,0C915.291,521.509,915.967,523.993,916.366,527.115Z" transform="translate(-320.934 -169.924)" opacity="0.1"/>
    <path id="Path_113" data-name="Path 113" d="M869.216,360.894s-11.167-15.447-6.958-21.5l-18.865,7.724s-11.354-1.377-15.447,15.57a29.489,29.489,0,0,0-.7,8.6c.154,2.575-.193,7.08-3.109,12.873-4.654,9.313-3.6,30.7,5.928,32.826s12.905,1.056,12.905,1.056-1.287,38.734-6.771,43.182,14.031,3.386,14.031,3.386,16.87.85,25.552,2.118S908.8,462.28,908.8,462.28s-3.6-16.3-4.872-26.666-4.242-32.459-4.242-32.459l21.588-29.247s3.81-17.674-9.526-25.507-18.35-9.751-18.35-9.751-13.4,21.819-20.384,22.875C873.026,361.525,870.375,362.593,869.216,360.894Z" transform="translate(-312.782 -110.811)" fill="#ff2d2d"/>
    <path id="Path_114" data-name="Path 114" d="M855.188,382.74s-.206,6.99,1.062,9.738,5.928,18.022,5.928,18.022H851.59s5.715-6.14,5.3-9.108S855.188,382.74,855.188,382.74Z" transform="translate(-323.521 -128.554)" opacity="0.1"/>
    <path id="Path_115" data-name="Path 115" d="M887.183,448.205s-23.377-5.716-25.552-10.581-8.181-15.763-8.181-15.763l2.465-3.321,11.367,8.921s13.516,10.794,19.9,11.856S887.183,448.205,887.183,448.205Z" transform="translate(-324.184 -139.171)" fill="#fbbebe"/>
    <path id="Path_116" data-name="Path 116" d="M887.183,448.205s-23.377-5.716-25.552-10.581-8.181-15.763-8.181-15.763l2.465-3.321,11.367,8.921s13.516,10.794,19.9,11.856S887.183,448.205,887.183,448.205Z" transform="translate(-324.184 -139.171)" opacity="0.05"/>
    <path id="Path_117" data-name="Path 117" d="M913.879,421.8v12.68h-2.034a59.271,59.271,0,0,0-28.794,7.459l-3.813,2.112-1.023.573-6.565-14.8,6.14-5.5h.315c1.5.148,7.994.689,10.749-.238,2.613-.888,5.857-3.7,13.555-1.738,3.791.972,7.035,5.22,10.71,3.894Z" transform="translate(-330.669 -140.408)" fill="#fbbebe"/>
    <path id="Path_118" data-name="Path 118" d="M943.481,378.034l4.229,4.763v11.54s-3.6,36.4-15.023,40.427-31.834-2.33-31.834-2.33-5.271-13.967-2.806-14.8,21.787-5.947,21.787-5.947-.27-21.356,3.958-27.709c0,0-2.748-19.895,6.778-20.32S943.481,378.034,943.481,378.034Z" transform="translate(-339.842 -120.924)" opacity="0.1"/>
    <path id="Path_119" data-name="Path 119" d="M944.483,378.034l4.235,4.763v11.54s-3.6,36.4-15.029,40.427-31.835-2.33-31.835-2.33-5.271-13.967-2.8-14.8,21.787-5.947,21.787-5.947-.277-21.356,3.958-27.709c0,0-2.755-19.895,6.771-20.32S944.483,378.034,944.483,378.034Z" transform="translate(-340.2 -120.924)" fill="#fd1d1d"/>
    <path id="Path_120" data-name="Path 120" d="M905.861,292.93a8.509,8.509,0,0,0-.483-4.126,3.141,3.141,0,0,0-3.36-1.931c-1.809.425-2.575,2.781-4.364,3.347-1.5.476-3.134-.586-3.862-1.982a9.875,9.875,0,0,1-.734-4.609v-5.3c0-1.931-.064-4-1.249-5.516-1.474-1.879-4.943-2.7-7.26-2.626a6.159,6.159,0,0,0-4.145,1.667,5.335,5.335,0,0,1-4.357,1.551,3.752,3.752,0,0,1-3.038-2.626v-.064A21.588,21.588,0,1,1,905.1,299.367a58.176,58.176,0,0,0,.759-6.436Z" transform="translate(-331.154 -92.217)" opacity="0.1"/>
    <path id="Path_121" data-name="Path 121" d="M872.949,265.526a3.785,3.785,0,0,1-3.044-2.633c-.174-.682-.129-1.41-.328-2.085-.5-1.667-2.272-2.529-3.463-3.8-2.381-2.529-2.227-6.687-.541-9.732,1.365-2.452,4-4.505,6.771-4.042,1.712.3,3.218,1.513,4.93,1.628s3.218-.83,4.718-1.525a17.777,17.777,0,0,1,11.727-1.043,6.758,6.758,0,0,1,3.218,1.628,28.124,28.124,0,0,1,1.719,2.414c1.97,2.51,5.5,3.006,8.651,3.572s6.707,1.815,7.724,4.84c.689,2.008,0,4.184-.373,6.269a1.892,1.892,0,0,0,.084,1.287c.5.811,1.725.47,2.652.644,1.783.38,2.24,2.678,2.311,4.505q.109,3.128.167,6.263a7.976,7.976,0,0,1-.187,2.317,8.183,8.183,0,0,1-1.8,2.916l-6.99,8.4c-3.1,3.72-6.391,8.058-5.793,12.873-1.467.644-3.218-.611-3.695-2.15a9.616,9.616,0,0,1,.232-4.769,58.487,58.487,0,0,0,1.12-8.271,8.483,8.483,0,0,0-.483-4.119,3.141,3.141,0,0,0-3.36-1.931c-1.815.425-2.574,2.781-4.364,3.347-1.5.476-3.135-.586-3.862-1.982a9.848,9.848,0,0,1-.734-4.6v-5.31c0-1.931-.064-4-1.249-5.516-1.474-1.879-4.943-2.7-7.26-2.626a6.16,6.16,0,0,0-4.139,1.667A5.344,5.344,0,0,1,872.949,265.526Z" transform="translate(-328.055 -85.569)" fill="#4d3434"/>
    <path id="Path_122" data-name="Path 122" d="M885.3,381.92l6.63,27.232S897.156,409.12,885.3,381.92Z" transform="translate(-335.534 -128.33)" opacity="0.1"/>
    <path id="Path_123" data-name="Path 123" d="M917.127,374.85s-8.676,14.212-5.291,28.912l1.616.116S910.568,397.075,917.127,374.85Z" transform="translate(-344.711 -126.143)" opacity="0.1"/>
    <path id="Path_124" data-name="Path 124" d="M929,499.4s10.659-3.527,11.431,4.654C940.457,504.055,938.449,498.449,929,499.4Z" transform="translate(-351.107 -164.375)" opacity="0.1"/>
    <path id="Path_125" data-name="Path 125" d="M871.1,426.81s-2.118,14.8,1.693,20.745a46.423,46.423,0,0,1-18.627,2.542L852.88,426.81Z" transform="translate(-323.98 -141.932)" opacity="0.1"/>
    <path id="Path_126" data-name="Path 126" d="M879.238,445.524l-1.023.573-6.565-14.8,6.14-5.5h.315C878.009,426.524,876.3,439.249,879.238,445.524Z" transform="translate(-330.669 -141.765)" opacity="0.1"/>
    <path id="Path_127" data-name="Path 127" d="M867.712,425.83s-2.118,14.8,1.693,20.738a46.287,46.287,0,0,1-18.627,2.542l-7.408-23.28Z" transform="translate(-320.591 -141.639)" fill="#ff1e1e"/>
    <path id="Path_128" data-name="Path 128" d="M824.96,800.107a4.8,4.8,0,0,1-4.113,4.2c-5.748.856-19.592,3.044-23.087,4.711-4.447,2.118-22.012.644-22.862-1.48a3.36,3.36,0,0,1,.3-2.575,6.784,6.784,0,0,1,2.838-3.051,7.528,7.528,0,0,1,1.287-.567c3.308-1.1,9.558-3.443,11.244-5.9,0,0,7.794-6.816,10.015-10.5a5.085,5.085,0,0,1,4.068-2.536c1.854-.084,3.92.85,4.769,4.911,0,0,10.15,5.793,12.873.714,0,0,.425,7.8,2.111,9.938h0A2.831,2.831,0,0,1,824.96,800.107Z" transform="translate(-296.144 -246.923)" fill="#a27772"/>
    <path id="Path_129" data-name="Path 129" d="M824.96,808.727a4.8,4.8,0,0,1-4.113,4.2c-5.748.856-19.592,3.044-23.087,4.712-4.447,2.118-22.012.644-22.862-1.48a3.359,3.359,0,0,1,.3-2.575,6.783,6.783,0,0,1,2.838-3.051c2.864,1.931,9.223,3.759,23.21,1.577,13.343-2.085,19.953-4.126,23.171-5.516h0a2.832,2.832,0,0,1,.541,2.137Z" transform="translate(-296.144 -255.542)" opacity="0.1"/>
    <g id="Group_4" data-name="Group 4" transform="translate(536.24 166.846)" opacity="0.1">
      <path id="Path_130" data-name="Path 130" d="M942.447,269.431v-.1a18.955,18.955,0,0,0,.644-4.808,31.691,31.691,0,0,1-.644,3.862A2.347,2.347,0,0,0,942.447,269.431Z" transform="translate(-892.118 -259.873)"/>
      <path id="Path_131" data-name="Path 131" d="M902.263,286.669a6.119,6.119,0,0,1,.521,2.42,7.3,7.3,0,0,0-.521-3.373,3.129,3.129,0,0,0-3.353-1.931c-1.815.425-2.575,2.781-4.37,3.347-1.493.476-3.128-.586-3.862-1.982a9.793,9.793,0,0,1-.734-4.608v-5.3c0-1.931-.064-4-1.249-5.516-1.48-1.886-4.943-2.7-7.26-2.633a6.166,6.166,0,0,0-4.145,1.673,5.348,5.348,0,0,1-4.364,1.551,3.772,3.772,0,0,1-3.038-2.626c-.174-.682-.129-1.416-.328-2.092-.5-1.661-2.272-2.53-3.463-3.791a6.931,6.931,0,0,1-1.783-4.505,7.215,7.215,0,0,0,1.783,5.426c1.191,1.287,2.967,2.13,3.463,3.791.2.644.154,1.41.328,2.092a3.771,3.771,0,0,0,3.038,2.626,5.348,5.348,0,0,0,4.364-1.551,6.166,6.166,0,0,1,4.145-1.673c2.317-.071,5.793.747,7.26,2.632,1.184,1.513,1.242,3.592,1.249,5.516v5.3a9.741,9.741,0,0,0,.734,4.6c.734,1.384,2.349,2.465,3.862,1.989,1.777-.566,2.575-2.922,4.37-3.347A3.251,3.251,0,0,1,902.263,286.669Z" transform="translate(-864.285 -257.3)"/>
      <path id="Path_132" data-name="Path 132" d="M942.237,293.121a8.138,8.138,0,0,1-1.8,2.909l-6.99,8.4c-2.942,3.534-6.05,7.627-5.793,12.139.212-4.139,3.1-7.9,5.793-11.186l6.99-8.4a8.138,8.138,0,0,0,1.8-2.909,8.033,8.033,0,0,0,.187-2.324,6.114,6.114,0,0,1-.187,1.371Z" transform="translate(-886.861 -269.577)"/>
      <path id="Path_133" data-name="Path 133" d="M921.871,327.483a4.952,4.952,0,0,1-.212-1.133,5.708,5.708,0,0,0,.212,2.085c.476,1.532,2.221,2.8,3.695,2.143a9.024,9.024,0,0,1-.077-.927C924.021,330.238,922.322,328.989,921.871,327.483Z" transform="translate(-884.724 -281.907)"/>
    </g>
    <path id="Path_134" data-name="Path 134" d="M812.69,789.36s2.214,3.862,10.234.464" transform="translate(-309.658 -249.402)" opacity="0.1"/>
    <path id="Path_135" data-name="Path 135" d="M918,790.82s6.913,8.142,15.628,2.671" transform="translate(-347.187 -249.922)" opacity="0.1"/>
    <path id="Path_136" data-name="Path 136" d="M946.466,641.23s-4.885,3.051-5.04,4.8,2.523-1.287,2.523-1.287Z" transform="translate(-355.533 -207.358)" opacity="0.1"/>
    <path id="Path_137" data-name="Path 137" d="M947.4,677.59a10.214,10.214,0,0,1-6.018,2.349c-3.656.161-3.347,4.924-.959,3.495A59.907,59.907,0,0,0,947.4,677.59Z" transform="translate(-354.54 -218.265)" opacity="0.1"/>
    <path id="Path_138" data-name="Path 138" d="M951.348,682.34s-2.343,11.515-4.248,9.294" transform="translate(-357.557 -211.264)" opacity="0.1"/>
    <path id="Path_139" data-name="Path 139" d="M246.576,607.406s14.707,4.036,21.787-1.332,10.15-3.643,10.15-3.643,16.883-.933,18.273-4.924-6.475-18.485-6.475-18.485c-.56-1.287-1.377-2.922-1.744-2.922l.077-6.115h0L291.09,544.4c5.645-14.475.1-33.18.1-33.18l-1.01-4.641a11.741,11.741,0,0,1,.959-7.724l10.253-20.6a30.826,30.826,0,0,1,1.931-3.952c.644-1.178,1.5-2.633,2.575-4.377.315-.5.644-1.023,1-1.57,1.242-1.931,2.748-4.119,4.57-6.642,4.538-6.288,6.926-14.16,8.161-19.953l.547,1.815h.122l.148.032h.245l.264.045h.1l3.154,40.137c.193,15.653,5.941,24.317,5.941,24.317l-.792,34.557c1.081,8.322-1.287,19.419-2.375,23.847l-2.484,5.606a6.739,6.739,0,0,0-3.662,5.1c-.489,4.139-4.847,13.059-4.847,13.059-1.686,2.137-5.349,7.91-5.349,7.91s-1.725,5.574-.656,7.659,10,1.873,10,1.873c10.2,2.259,18.022-3.218,17.526-6.99s1.59-4.731,1.59-4.731c4.055-1.287,3.662-4.036,3.662-4.036a25.257,25.257,0,0,0-3.07-16.439l-.644,1.487a22.636,22.636,0,0,1,1.223-8.773l-.373.258-.116.071h-.039c.644-5.645,6.572-16.091,6.572-16.091,10.89-19.1,6.932-44.99,6.932-44.99l-1.686-8.071-.1-3.044a101.614,101.614,0,0,1,1.641-21.691c.586-3.167,1.191-6.99,1.654-11.206a99.04,99.04,0,0,1,5.587-21.993l.431-.077h.051c.592-.1,1.191-.206,1.8-.322h.116s.348-1.879.644-5.078c.174-2.04.315-4.628.315-7.6a85.521,85.521,0,0,0-4.061-26.46l.328-.47s.779-1.056,2.2-2.884h0c2.613-3.321,6.681-8.367,11.695-14.057,8.979-10.24,6.34-20.6,6.34-20.6s-6.5-23.821-9.4-38.123a43.354,43.354,0,0,0-7.132-16.96,33.752,33.752,0,0,0,.9-6.874c.193-4.235.045-8.651-1.86-12.454s-5.96-6.81-10.2-6.3a3.9,3.9,0,0,1-1.828,0,2.78,2.78,0,0,1-1.2-1.049c-2.478-3.418-2.639-8.013-1.867-12.158s2.356-8.11,3.064-12.268.386-8.773-2.259-12.068c-3.109-3.862-8.528-4.95-12.57-7.852-2.839-2.04-4.969-4.969-7.962-6.777s-5.793-1.12-9.043-.438c-5.465,1.152-10.659,1.68-15.827,4.029a42.152,42.152,0,0,0-13.793,10.034,13.091,13.091,0,0,0-3.077,4.853c-1.287,4.254,1.229,8.786.7,13.188-.373,3.122-2.214,5.838-3.675,8.625s-2.575,6.1-1.429,9.011c1.8,4.557,7.679,5.522,11.952,7.949a3.649,3.649,0,0,1,1.416,1.229c1.056,1.841-1.1,3.752-2.459,5.387a8.117,8.117,0,0,0-1.609,3.27,11.663,11.663,0,0,0-7,8.445c-1.448,6.481.779,14.662,2.742,20.069-2.143,12.042.644,16.793,2.7,18.614a10.33,10.33,0,0,1,3.579,7.041v.225c.135,2.188.367,4.37.676,6.546h0c-.071-.508-.142-1.049-.18-1.287-1.68,3.109-4.879,11.051-6.681,24.413a73.373,73.373,0,0,1-1.628,8.5,46.5,46.5,0,0,0-1.365,15.2l.322,4.332a1.364,1.364,0,0,1-.875-.29l2.259,4.139v6.983a25.747,25.747,0,0,1-1.712,9.211c-.161.425-.335.85-.521,1.287a7.492,7.492,0,0,0-.759,3.791c-4.859,7.447-16,49.18-16,49.18-6.044,13.684.5,22.527.5,22.527s3.167,38.1,3.759,40.067,1.905,25.192,1.905,25.192h0v1.847a4.334,4.334,0,0,0-1.1-.315c-5.3-.3-6.732,8.071-6.732,8.071L254.1,592.332s-4.95-.837-12.229,4.628S246.576,607.406,246.576,607.406ZM354.8,387.223l-.032-.116-.3.174h0l-.122.071-.058.039h0L349.3,369.761a29.273,29.273,0,0,1-.367-14.5l3.862-16.915h0v-4.068l12.274,32.71C365.855,371.4,358.563,382.074,354.8,387.223Z" transform="translate(-105.405 -50.031)" fill="url(#linear-gradient-4)"/>
    <path id="Path_140" data-name="Path 140" d="M405.137,557s-4.956,12.055-6.218,23.622c-.457,4.171-1.049,7.943-1.628,11.071a101.165,101.165,0,0,0-1.583,21.414l.1,3.006,1.609,7.962s3.862,25.572-6.8,44.411c0,0-6.321,11.283-6.514,16.625l-4.28,1.654-8.651-2.426s4.177-14.978,2.819-25.475l.779-34.113s-5.619-8.535-5.812-23.982l-3.3-42.39Z" transform="translate(-150.351 -166.598)" fill="#fdc2cc"/>
    <path id="Path_141" data-name="Path 141" d="M334.754,547.62s-1.062,16.529-9.236,27.921-9.912,16.336-9.912,16.336l-10.067,20.352a11.657,11.657,0,0,0-.946,7.614l.991,4.583s5.445,18.473-.1,32.768l-2.626,27.612H287.5s-1.287-22.946-1.847-24.89-3.694-39.571-3.694-39.571-6.436-8.754-.489-22.264c0,0,13.42-50.558,17.011-49.683S334.754,547.62,334.754,547.62Z" transform="translate(-119.455 -163.256)" fill="#fdc2cc"/>
    <g id="Group_5" data-name="Group 5" transform="translate(181.849 384.364)" opacity="0.1">
      <path id="Path_142" data-name="Path 142" d="M316.4,624.458l-.985-4.583a11.585,11.585,0,0,1,.94-7.646l10.067-20.371s1.744-4.956,9.912-16.336c7.846-10.942,9.14-26.621,9.23-27.825l1.564-.077s-1.062,16.529-9.236,27.921-9.912,16.336-9.912,16.336l-10.066,20.352a11.656,11.656,0,0,0-.946,7.614l.991,4.583s5.445,18.473-.1,32.768l-2.626,27.612H313.68l2.626-27.612C321.848,642.9,316.4,624.458,316.4,624.458Z" transform="translate(-313.68 -547.62)"/>
    </g>
    <path id="Path_143" data-name="Path 143" d="M389.909,685.129c.193-5.342,6.514-16.625,6.514-16.625,10.7-18.859,6.8-44.411,6.8-44.411l-1.648-7.968-.1-3.006a101.161,101.161,0,0,1,1.583-21.414c.573-3.128,1.165-6.9,1.622-11.071,1.216-11.135,5.857-22.721,6.2-23.57l1.6-.064s-4.956,12.055-6.218,23.622c-.457,4.171-1.049,7.943-1.628,11.071a101.173,101.173,0,0,0-1.583,21.414l.1,3.006,1.609,7.962s3.862,25.572-6.8,44.411c0,0-6.321,11.283-6.514,16.625l-4.28,1.654-.9-.251Z" transform="translate(-157.695 -166.598)" opacity="0.1"/>
    <path id="Path_144" data-name="Path 144" d="M378.785,754.384a7.44,7.44,0,0,0,7.08-.875,22.85,22.85,0,0,0-.579,12.834c1.751,7-16.336-5.638-16.336-5.638l3.862-8.824S374.312,754.673,378.785,754.384Z" transform="translate(-151.527 -236.046)" fill="#d39999"/>
    <path id="Path_145" data-name="Path 145" d="M380.137,754.766a7.228,7.228,0,0,0,5.748-1.287,22.85,22.85,0,0,0-.579,12.834c1.751,7-16.336-5.638-16.336-5.638l3.862-8.824a5.518,5.518,0,0,0,4.409,2.484C378.238,754.45,379.191,754.586,380.137,754.766Z" transform="translate(-151.534 -236.035)" opacity="0.1"/>
    <path id="Path_146" data-name="Path 146" d="M289.32,457.2h7.556V414.327l-5.67-1.017Z" transform="translate(-103.094 -122.79)" fill="#fdc2cc"/>
    <path id="Path_147" data-name="Path 147" d="M289.32,457.2h7.556V414.327l-5.67-1.017Z" transform="translate(-103.094 -122.79)" opacity="0.05"/>
    <path id="Path_148" data-name="Path 148" d="M367.2,760.484a7.534,7.534,0,0,1,6.9,3.984l2.626,2.04,1.287-3.012a25.1,25.1,0,0,1,2.974,16.239s.386,2.716-3.6,3.984c0,0-2.04.972-1.558,4.666s-7.189,9.14-17.2,6.9c0,0-8.754.2-9.822-1.847s.682-7.486.682-7.486,3.6-5.7,5.246-7.807c0,0,4.28-8.818,4.769-12.873S364.674,758.244,367.2,760.484Z" transform="translate(-144.226 -238.838)" fill="#7e5659"/>
    <path id="Path_149" data-name="Path 149" d="M307.365,762.972l.077-6.044s-8.7,2.5-15.737-.328c0,0,.592,6.076-.386,6.906s3.257,8.65,3.257,8.65l4.731,4.956,8.136-2.961,2.208-6.951S307.944,762.972,307.365,762.972Z" transform="translate(-123.81 -237.728)" fill="#d39999"/>
    <path id="Path_150" data-name="Path 150" d="M307.365,762.972l.077-6.044s-8.7,2.5-15.737-.328c0,0,.592,6.076-.386,6.906s3.257,8.65,3.257,8.65l4.731,4.956,8.136-2.961,2.208-6.951S307.944,762.972,307.365,762.972Z" transform="translate(-123.81 -237.728)" opacity="0.1"/>
    <path id="Path_151" data-name="Path 151" d="M273.093,763.1s4.621.534,4.036,6.436.245,0,.245,0,4.911,1.989,6.662,4.763,4.911-2.478,5.149-3.984,2.208-2.13,2.208-2.13,7.724,14.321,6.359,18.26-17.945,4.847-17.945,4.847-3.019-1.7-9.97,3.6-21.388,1.287-21.388,1.287-11.766-4.911-4.615-10.3,12-4.57,12-4.57l10.646-10.26S267.893,762.8,273.093,763.1Z" transform="translate(-106.119 -240.04)" fill="#7e5659"/>
    <path id="Path_152" data-name="Path 152" d="M350.983,236.449c2.941,1.783,5.033,4.679,7.82,6.694,3.965,2.864,9.288,3.933,12.339,7.756,2.575,3.257,2.909,7.807,2.214,11.914s-2.253,8.026-3.006,12.12-.6,8.631,1.834,12a2.723,2.723,0,0,0,1.178,1.036,3.861,3.861,0,0,0,1.8,0c4.158-.5,8.148,2.472,10.015,6.224s2.015,8.116,1.822,12.3a25.422,25.422,0,0,1-2.053,10.021c-2.575,5.252-7.93,8.5-13.214,10.98a102.339,102.339,0,0,1-10.549,4.261c-2.472.837-5.078,1.59-7.646,1.152-4.4-.759-7.511-4.757-11.682-6.321-3.418-1.287-7.209-.824-10.845-.5-3.1.27-6.649.264-8.786-2-2.742-2.909-1.506-7.6-.1-11.347a8.078,8.078,0,0,1-5.716-13.207c1.326-1.616,3.443-3.5,2.407-5.323a3.527,3.527,0,0,0-1.39-1.21c-4.19-2.394-9.964-3.353-11.727-7.846-1.133-2.89-.039-6.16,1.4-8.908s3.218-5.439,3.611-8.515c.515-4.351-1.931-8.824-.689-13.021a13.053,13.053,0,0,1,3.019-4.8A41.426,41.426,0,0,1,326.544,240c5.078-2.324,10.17-2.845,15.537-3.978C345.3,235.342,347.964,234.622,350.983,236.449Z" transform="translate(-128.816 -82.475)" fill="#865a61"/>
    <path id="Path_153" data-name="Path 153" d="M323.851,337.756s-12.313-.644-14.643,9.854,5.053,25.533,5.053,25.533Z" transform="translate(-130.075 -114.821)" fill="#fdc2cc"/>
    <path id="Path_154" data-name="Path 154" d="M323.851,337.756s-12.313-.644-14.643,9.854,5.053,25.533,5.053,25.533Z" transform="translate(-130.075 -114.821)" opacity="0.05"/>
    <path id="Path_155" data-name="Path 155" d="M320,354.906l4.666,3.694,21.774.972,13.594-9.333,13.825-23.725c-8.451-2.156-11.869-7.994-13.143-13.452a29.451,29.451,0,0,1-.27-11.238S338.279,290.349,341,308.262a24.331,24.331,0,0,1,.206,6.655c-1.287,10.491-11.47,8.515-11.47,8.515l-3.907,6.024-4.473,14.8Z" transform="translate(-134.083 -102.138)" fill="#fdc2cc"/>
    <path id="Path_156" data-name="Path 156" d="M352.532,308.234a24.331,24.331,0,0,1,.206,6.655,19.65,19.65,0,0,0,19.509-1.828,29.452,29.452,0,0,1-.27-11.238S349.809,290.347,352.532,308.234Z" transform="translate(-145.593 -103.567)" opacity="0.1"/>
    <circle id="Ellipse_39" data-name="Ellipse 39" cx="19.637" cy="19.637" r="19.637" transform="translate(195.675 171.739)" fill="#fdc2cc"/>
    <path id="Path_157" data-name="Path 157" d="M332.835,364.928c.476,0,.946.071,1.416.116,2.575.257,13.33.837,19.457-6.481,6.855-8.187,15.982-18.3,16.355-18.711l9.288,2.806s-7.35-2.613-12.229,11.058a14.16,14.16,0,0,0,4.782,16.291,14.713,14.713,0,0,0,6.076,2.574.032.032,0,0,1,0,.032v6h0l-3.8,16.735a29.009,29.009,0,0,0,.36,14.321l5.793,20.474c-.875.605-36.816,25.05-60.824,8.168h0c.09-.734,3.057-24.761,1-36.52a81.195,81.195,0,0,1-1.075-9.088v-.225a10.247,10.247,0,0,0-3.521-6.951c-2.163-1.931-5.091-7.08-2.195-20.687a49.984,49.984,0,0,1,3.218-9.8l8.052-18.2h0l7.421.148v.051c-.644.8-9.249,11.547-10.182,18.472C321.314,362.1,320.188,364.117,332.835,364.928Z" transform="translate(-131.413 -111.414)" fill="#efd705"/>
    <path id="Path_158" data-name="Path 158" d="M406.121,348.913s7.26,6.224,10.112,20.352,9.2,37.6,9.2,37.6,2.575,10.24-6.224,20.352-14.649,18.022-14.649,18.022l-5.793,8.535a7.266,7.266,0,0,1-4.171,2.948c-2.639.7-6.694,1.2-10.208-.727a5.947,5.947,0,0,1-2.575-7.511l1.287-2.98s-11.927,7.518-12.963,3.366,13.87-8.3,13.87-8.3,12.313-2.073,14.8-7.9c0,0,13.22-16.986,12.184-22.817l-12.77-34.222s-15.969-2.111-10.523-20.049S406.121,348.913,406.121,348.913Z" transform="translate(-151.933 -113.646)" fill="#fdc2cc"/>
    <path id="Path_159" data-name="Path 159" d="M307.379,524.752s29.17,5.831,36.044,5.053l.74,2.465s11.071,2.478,36.1-1.493q2.452-.386,5.091-.869l.586-.1s.341-1.854.611-5.014c.6-7.177.811-21.073-4.242-35.3L378.1,476.53s-26.016,15.6-43.24,14.16c-1.538-.129-3.064-.251-4.6-.3-3.534-.135-9.011,0-12.57-2.851l-7.466,1.287v21.24a25.45,25.45,0,0,1-1.686,9.088c-.161.425-.328.843-.515,1.287A6.758,6.758,0,0,0,307.379,524.752Z" transform="translate(-129.546 -155.009)" fill="#65617d"/>
    <path id="Path_160" data-name="Path 160" d="M364.58,552.379v6.61s12.744,2.851,41.779-2.465c0,0,.341-1.854.611-5.014C398.062,552.939,373.494,556.376,364.58,552.379Z" transform="translate(-149.97 -180.152)" opacity="0.1"/>
    <path id="Path_161" data-name="Path 161" d="M307.381,548.364s29.17,5.831,36.044,5.053l.74,2.465v-6.61c-3.321,1.377-27.033-4.338-35.625-6.481-.161.425-.328.843-.515,1.287a6.759,6.759,0,0,0-.644,4.287Z" transform="translate(-129.548 -177.255)" opacity="0.1"/>
    <path id="Path_162" data-name="Path 162" d="M417.31,537.705l2.163,13.413q2.452-.386,5.091-.869c-.676-3.92-2.15-12.873-1.744-14.359l-2.723-2.33Z" transform="translate(-168.76 -174.232)" fill="#65617d"/>
    <path id="Path_163" data-name="Path 163" d="M417.78,537.255l2.163,13.42q2.452-.393,5.091-.869c-.676-3.92-2.15-12.873-1.744-14.36l-2.723-2.336Z" transform="translate(-168.928 -174.096)" opacity="0.1"/>
    <g id="Group_6" data-name="Group 6" transform="translate(186.889 321.5)" opacity="0.05">
      <path id="Path_164" data-name="Path 164" d="M338.373,496.774c-1.532-.129-3.064-.251-4.6-.3-3.437-.129-8.683,0-12.261-2.633l1.249-.219c3.579,2.839,9.011,2.716,12.57,2.851,1.538.052,3.064.174,4.6.3.5.045,1.017.071,1.538.084a28.872,28.872,0,0,1-3.1-.084Z" transform="translate(-321.51 -482.601)"/>
      <path id="Path_165" data-name="Path 165" d="M404.576,530.765q2.452-.386,5.091-.862l.592-.109s.341-1.854.605-5.014c.605-7.177.817-21.073-4.242-35.3l-3.965-12.229c.843-.476,1.287-.753,1.287-.753l4.209,12.963c5.053,14.224,4.84,28.121,4.242,35.3-.27,3.16-.611,5.014-.611,5.014l-.586.109q-2.633.476-5.091.863A160.339,160.339,0,0,1,379.88,533,165.419,165.419,0,0,0,404.576,530.765Z" transform="translate(-342.311 -476.5)"/>
      <path id="Path_166" data-name="Path 166" d="M360.537,559.3v.071H359.7Q360.176,559.339,360.537,559.3Z" transform="translate(-335.119 -506.007)"/>
    </g>
    <ellipse id="Ellipse_40" data-name="Ellipse 40" cx="1.101" cy="2.266" rx="1.101" ry="2.266" transform="translate(251.073 360.912)" fill="#d39999"/>
    <path id="Path_167" data-name="Path 167" d="M312.1,455.744c1.776-13.195,4.911-21.034,6.565-24.1.064.418.232,1.776.309,2.195.335,1.931.039,4.364.142,6.816l-1.648,29.839,2.208,9.333c2.073,7.389-5.606,1.551-5.606,1.551-1.59,3.5-4.505,3.115-4.505,3.115l-.4-5.355a46.252,46.252,0,0,1,1.339-15.016,71.566,71.566,0,0,0,1.6-8.374Z" transform="translate(-130.177 -141.935)" fill="#fdc2cc"/>
    <path id="Path_168" data-name="Path 168" d="M312.1,455.744c1.776-13.195,4.911-21.034,6.565-24.1.064.418.232,1.776.309,2.195.335,1.931.039,4.364.142,6.816l-1.648,29.839,2.208,9.333c2.073,7.389-5.606,1.551-5.606,1.551-1.59,3.5-4.505,3.115-4.505,3.115l-.4-5.355a46.252,46.252,0,0,1,1.339-15.016,71.566,71.566,0,0,0,1.6-8.374Z" transform="translate(-130.177 -141.935)" opacity="0.05"/>
    <path id="Path_169" data-name="Path 169" d="M408.3,486.78c-1.4,1.809-2.163,2.845-2.163,2.845l-5.793,8.528a7.234,7.234,0,0,1-4.171,2.948c-2.639.7-6.694,1.2-10.208-.727a5.934,5.934,0,0,1-2.575-7.5l1.287-2.987s-11.927,7.518-12.963,3.373,13.87-8.3,13.87-8.3,12.313-2.073,14.8-7.91c0,0,1.075-1.377,2.575-3.489" transform="translate(-152.492 -155.687)" fill="#fdc2cc"/>
    <path id="Path_170" data-name="Path 170" d="M405.9,511.086s-14.1-1.371-18.569-9.436l-2.047,6.662s14.8,10.221,18.183,8.9Z" transform="translate(-157.346 -164.754)" fill="#65617d"/>
    <path id="Path_171" data-name="Path 171" d="M405.119,510.982s-14.1-1.371-18.569-9.442l-2.04,6.642s14.8,10.221,18.176,8.9Z" transform="translate(-157.072 -164.722)" opacity="0.1"/>
    <path id="Path_172" data-name="Path 172" d="M314.309,510.46s-4.937,1.751-5.909.779l2.221,4.087,4.2-3.218Z" transform="translate(-129.949 -167.964)" fill="#65617d"/>
    <path id="Path_173" data-name="Path 173" d="M314.309,510.46s-4.937,1.751-5.909.779l2.221,4.087,4.2-3.218Z" transform="translate(-129.949 -167.964)" opacity="0.1"/>
    <path id="Path_174" data-name="Path 174" d="M332.3,528V519.47L330.27,528.2Z" transform="translate(-117.687 -156.401)" opacity="0.1"/>
    <path id="Path_175" data-name="Path 175" d="M370.985,268.835a7.574,7.574,0,0,1-5.291,2.787,41.691,41.691,0,0,1-6.147,0c-3.218-.052-6.642.444-9.275,2.336a23.58,23.58,0,0,0-4.254,4.505c-3.978,4.859-9.5,9.41-15.769,8.9a4.087,4.087,0,0,1-2.929-1.236,4.7,4.7,0,0,1-.746-2.664,60.911,60.911,0,0,1,.38-12.01,25.32,25.32,0,0,1,1.815-7.164,24.459,24.459,0,0,1,4.364-6.23,26.692,26.692,0,0,1,7.614-6.1,13.658,13.658,0,0,1,9.526-1.229c3.752,1.023,6.675,3.958,10.253,5.471C364.613,257.919,375.465,262.508,370.985,268.835Z" transform="translate(-136.377 -88.728)" opacity="0.1"/>
    <path id="Path_176" data-name="Path 176" d="M370.985,267.621a7.574,7.574,0,0,1-5.291,2.787,41.7,41.7,0,0,1-6.147,0c-3.218-.058-6.642.438-9.275,2.33a23.581,23.581,0,0,0-4.254,4.505c-3.978,4.86-9.5,9.41-15.769,8.9a4.061,4.061,0,0,1-2.929-1.236,4.68,4.68,0,0,1-.747-2.665,60.914,60.914,0,0,1,.38-12.01,25.323,25.323,0,0,1,1.815-7.164,24.291,24.291,0,0,1,4.364-6.224,26.6,26.6,0,0,1,7.614-6.108,13.658,13.658,0,0,1,9.526-1.229c3.752,1.023,6.675,3.958,10.253,5.471C364.613,256.705,375.465,261.281,370.985,267.621Z" transform="translate(-136.377 -88.365)" fill="#865a61"/>
    <path id="Path_177" data-name="Path 177" d="M291.979,473.47l-.051,2.349-.528-2.246Z" transform="translate(-103.835 -142.868)" fill="#fdc2cc"/>
    <path id="Path_178" data-name="Path 178" d="M291.979,473.47l-.051,2.349-.528-2.246Z" transform="translate(-103.835 -142.868)" opacity="0.05"/>
    <g id="Group_7" data-name="Group 7" transform="translate(234.308 231.286)" opacity="0.05">
      <path id="Path_179" data-name="Path 179" d="M398.657,354.65c-5.452,17.938,10.44,20.043,10.44,20.043l12.77,34.222c1.036,5.831-12.191,22.817-12.191,22.817-.92,2.175-3.218,3.83-5.728,5.053a8.972,8.972,0,0,0,3.4-3.733s13.22-16.979,12.184-22.811l-12.77-34.229s-15.885-2.1-10.44-20.043c1.822-5.992,4.505-8.721,7.222-9.7C401.669,347.776,399.951,350.383,398.657,354.65Z" transform="translate(-395.184 -346.27)"/>
    </g>
    <g id="Group_8" data-name="Group 8" transform="translate(181.14 225.144)" opacity="0.1">
      <path id="Path_180" data-name="Path 180" d="M401,384.61a13.411,13.411,0,0,0,2.575,2.439,14.63,14.63,0,0,0,6.076,2.575v.676a14.586,14.586,0,0,1-5.51-2.439A13.357,13.357,0,0,1,401,384.61Z" transform="translate(-344.088 -353.857)" fill="#fff"/>
      <path id="Path_181" data-name="Path 181" d="M323.008,421.355v.225a83.132,83.132,0,0,0,1.107,9.12c1.931,11.1-.6,33.128-.959,36.172-.206-.135-.412-.264-.644-.412.1-.734,3.064-24.761,1-36.514a81.544,81.544,0,0,1-1.075-9.088v-.225a9.932,9.932,0,0,0-1.731-4.924A10.008,10.008,0,0,1,323.008,421.355Z" transform="translate(-315.476 -364.94)" fill="#fff"/>
      <path id="Path_182" data-name="Path 182" d="M331.959,337.712l-6.295-.122a.032.032,0,0,0-.032,0l-8.045,18.189a50.148,50.148,0,0,0-3.218,9.8c-2.343,11.006-.869,16.49.92,19.2-2.015-2.375-4.094-7.788-1.5-19.953a49.621,49.621,0,0,1,3.186-9.809l8.1-18.189h0l7.421.148v.045C332.442,337.1,332.242,337.345,331.959,337.712Z" transform="translate(-312.577 -336.83)" fill="#fff"/>
      <path id="Path_183" data-name="Path 183" d="M416.39,345.87l.109.032Z" transform="translate(-349.572 -340.051)" fill="#fff"/>
      <path id="Path_184" data-name="Path 184" d="M382.741,344.228l-6.308-1.9H376.4c-.373.412-9.494,10.523-16.348,18.711-6.127,7.318-16.87,6.745-19.457,6.488-.47-.051-.946-.09-1.416-.122-7.035-.451-9.8-1.287-10.729-3.064,1.319,1.287,4.222,1.931,10.144,2.291.476,0,.946.071,1.416.116,2.575.257,13.33.83,19.457-6.481,6.855-8.194,15.982-18.305,16.355-18.717h0L385,344.331A5.735,5.735,0,0,0,382.741,344.228Z" transform="translate(-318.234 -338.512)" fill="#fff"/>
    </g>
    <path id="Path_185" data-name="Path 185" d="M290.9,776.864s-8.882,2.427-10.6-1.384" transform="translate(-119.936 -244.456)" opacity="0.1"/>
    <path id="Path_186" data-name="Path 186" d="M377.36,773.995s-10.3,2.658-12.68-1.455" transform="translate(-150.005 -243.408)" opacity="0.1"/>
    <path id="Path_191" data-name="Path 191" d="M510.411,742.08h0C519.5,742.711,509.638,744.23,510.411,742.08Z" transform="translate(-201.365 -232.553)" fill="#fff" opacity="0.5"/>
    <path id="Path_195" data-name="Path 195" d="M592.3,768.74C593.3,769.564,589.413,766.38,592.3,768.74Z" transform="translate(-227.172 -232.553)" fill="#fff" opacity="0.5"/>
    <path id="Path_237" data-name="Path 237" d="M527.78,839.92s3.218,1.146,3.862,3.34" transform="translate(-208.128 -267.42)" opacity="0.1"/>
    <path id="Path_238" data-name="Path 238" d="M597.1,837.4s-2.285.959-2.124,4.962" transform="translate(-232.071 -266.522)" opacity="0.1"/>
    <ellipse id="Ellipse_45" data-name="Ellipse 45" cx="17.333" cy="2.929" rx="17.333" ry="2.929" transform="translate(106.64 502.813)" fill="#6c63ff" opacity="0.1"/>
    <ellipse id="Ellipse_46" data-name="Ellipse 46" cx="17.333" cy="2.929" rx="17.333" ry="2.929" transform="translate(38.356 544.348)" fill="#6c63ff" opacity="0.1"/>
    <path id="Path_242" data-name="Path 242" d="M25.881,0C40.174,0,51.761,1.96,51.761,4.377S40.174,8.753,25.881,8.753,0,6.794,0,4.377,11.587,0,25.881,0Z" transform="translate(11.761 505.742)" fill="#00be3f"/>
    <path id="Path_239" data-name="Path 239" d="M71.587,725.277a7.486,7.486,0,0,1-2.472-3.72,3.317,3.317,0,0,1,1.725-3.791c1.583-.605,3.276.489,4.557,1.6s2.755,2.375,4.435,2.143a6.752,6.752,0,0,1-2.085-6.32,2.575,2.575,0,0,1,.579-1.287c.875-.94,2.472-.534,3.527.206,3.34,2.356,4.28,6.9,4.293,10.993a20.275,20.275,0,0,0,.064-4.505c.006-1.493.425-3.218,1.7-4a5.15,5.15,0,0,1,2.575-.644c1.506-.052,3.18.1,4.209,1.2,1.287,1.365.946,3.662-.167,5.149a16.83,16.83,0,0,1-4.351,3.489,9.6,9.6,0,0,0-3.115,2.967,3.036,3.036,0,0,0-.232.528h-9.4a26.03,26.03,0,0,1-5.838-4Z" transform="translate(-44.649 -222.315)" fill="#00be3f"/>
    <ellipse id="Ellipse_48" data-name="Ellipse 48" cx="17.333" cy="2.929" rx="17.333" ry="2.929" transform="translate(645.514 527.31)" fill="#6c63ff" opacity="0.1"/>
    <path id="Path_240" data-name="Path 240" d="M1042.91,750.153s9.886-.3,12.873-2.426,15.2-4.654,15.943-1.249,14.862,16.921,3.695,17.011-25.932-1.738-28.906-3.553S1042.91,750.153,1042.91,750.153Z" transform="translate(-391.7 -233.527)" fill="#a8a8a8"/>
    <path id="Path_241" data-name="Path 241" d="M1075.613,765.265c-11.161.09-25.932-1.738-28.906-3.553-2.266-1.377-3.167-6.327-3.469-8.612h-.328s.644,7.975,3.6,9.783,17.745,3.643,28.906,3.553c3.218,0,4.338-1.171,4.274-2.871C1079.243,764.621,1078.014,765.265,1075.613,765.265Z" transform="translate(-391.7 -236.48)" opacity="0.2"/>
  </g>
</svg>
